<svg width="484" height="516" viewBox="0 0 484 516" fill="none" xmlns="http://www.w3.org/2000/svg">
<path opacity="0.984" fill-rule="evenodd" clip-rule="evenodd" d="M328.5 128.5C326.169 128.498 324.169 129.331 322.5 131C322.957 131.414 323.291 131.914 323.5 132.5C322.007 133.141 321.007 134.141 320.5 135.5C319.128 134.488 317.795 133.488 316.5 132.5C316.027 131.094 315.027 130.427 313.5 130.5C277.287 108.887 238.954 104.22 198.5 116.5C198.577 115.25 199.244 114.417 200.5 114C199.386 112.43 198.053 111.097 196.5 110C197.167 109.667 197.833 109.333 198.5 109C197.167 108.667 195.833 108.333 194.5 108C196.32 107.8 197.653 106.966 198.5 105.5C245.749 92.0868 289.082 99.7534 328.5 128.5Z" fill="#323232"/>
<path opacity="0.376" fill-rule="evenodd" clip-rule="evenodd" d="M192.5 107.5C191.486 108.674 190.153 109.34 188.5 109.5C189.287 107.896 190.62 107.229 192.5 107.5Z" fill="#C9C9C9"/>
<path opacity="0.016" fill-rule="evenodd" clip-rule="evenodd" d="M183.5 111.5C181.819 113.008 179.819 114.008 177.5 114.5C178.911 112.461 180.911 111.461 183.5 111.5Z" fill="#CECECE"/>
<path opacity="0.995" fill-rule="evenodd" clip-rule="evenodd" d="M198.5 105.5C197.653 106.966 196.32 107.8 194.5 108C195.833 108.333 197.167 108.667 198.5 109C197.833 109.333 197.167 109.667 196.5 110C198.053 111.097 199.386 112.43 200.5 114C199.244 114.417 198.577 115.25 198.5 116.5C181.331 123.341 165.664 132.675 151.5 144.5C151.611 143.883 151.944 143.383 152.5 143C150.667 142.5 149.5 141.333 149 139.5C148.667 139.833 148.333 140.167 148 140.5C147.692 139.692 147.192 139.025 146.5 138.5C144.925 139.456 143.258 140.123 141.5 140.5C151.539 129.13 163.539 120.463 177.5 114.5C179.819 114.008 181.819 113.008 183.5 111.5C185.05 110.559 186.716 109.893 188.5 109.5C190.153 109.34 191.486 108.674 192.5 107.5C194.421 106.637 196.421 105.971 198.5 105.5Z" fill="#333333"/>
<path opacity="0.99" fill-rule="evenodd" clip-rule="evenodd" d="M343.5 146.5C342.167 147.167 341.167 148.167 340.5 149.5C331.535 150.581 322.535 150.748 313.5 150C312.058 149.623 311.058 148.79 310.5 147.5C310.5 145.5 310.5 143.5 310.5 141.5C311.871 139.859 313.704 138.859 316 138.5C318.787 139.517 321.62 139.684 324.5 139C323.269 137.595 321.936 136.429 320.5 135.5C321.007 134.141 322.007 133.141 323.5 132.5C323.291 131.914 322.957 131.414 322.5 131C324.169 129.331 326.169 128.498 328.5 128.5C330.129 129.625 331.629 130.959 333 132.5C333.333 127.5 333.667 122.5 334 117.5C336.626 113.928 339.626 113.595 343 116.5C344.118 121.726 344.618 127.059 344.5 132.5C344.499 137.346 344.166 142.012 343.5 146.5Z" fill="#363636"/>
<path opacity="0.373" fill-rule="evenodd" clip-rule="evenodd" d="M313.5 130.5C315.027 130.427 316.027 131.094 316.5 132.5C314.973 132.573 313.973 131.906 313.5 130.5Z" fill="#A4A4A4"/>
<path opacity="0.7" fill-rule="evenodd" clip-rule="evenodd" d="M310.5 141.5C310.5 143.5 310.5 145.5 310.5 147.5C307.833 145.5 307.833 143.5 310.5 141.5Z" fill="#909090"/>
<path opacity="0.012" fill-rule="evenodd" clip-rule="evenodd" d="M343.5 146.5C343.5 148.5 342.5 149.5 340.5 149.5C341.167 148.167 342.167 147.167 343.5 146.5Z" fill="#DADADA"/>
<path opacity="0.978" fill-rule="evenodd" clip-rule="evenodd" d="M147.5 148.5C143.47 153.524 139.47 158.524 135.5 163.5C135.185 161.774 135.019 160.107 135 158.5C136.713 157.024 138.547 155.69 140.5 154.5C139.975 153.808 139.308 153.308 138.5 153C139.667 152.5 140.5 151.667 141 150.5C142.011 151.337 143.178 151.67 144.5 151.5C144.183 148.466 145.183 147.466 147.5 148.5Z" fill="#555555"/>
<path opacity="0.989" fill-rule="evenodd" clip-rule="evenodd" d="M288.5 163.5C288.973 164.906 289.973 165.573 291.5 165.5C293.027 165.427 294.027 166.094 294.5 167.5C295.585 169.587 297.251 170.92 299.5 171.5C300.539 173.531 302.205 174.864 304.5 175.5C305.419 178.089 307.086 180.089 309.5 181.5C310.5 181.833 311.167 182.5 311.5 183.5C312.08 185.749 313.413 187.415 315.5 188.5C316.338 188.842 316.672 189.508 316.5 190.5C316.427 192.027 317.094 193.027 318.5 193.5C318.427 195.027 319.094 196.027 320.5 196.5C321.674 197.514 322.34 198.847 322.5 200.5C322.427 202.027 323.094 203.027 324.5 203.5C324.12 205.698 324.787 207.365 326.5 208.5C326.132 212.044 327.132 215.044 329.5 217.5C330.051 220.807 330.384 224.14 330.5 227.5C330.167 228.5 329.5 229.167 328.5 229.5C324.693 230.226 322.026 228.893 320.5 225.5C319.232 223.095 318.565 220.428 318.5 217.5C318.598 215.447 317.931 213.78 316.5 212.5C311.825 201.161 305.158 191.161 296.5 182.5C295.089 180.086 293.089 178.419 290.5 177.5C289.738 175.738 288.404 174.738 286.5 174.5C286.027 173.094 285.027 172.427 283.5 172.5C260.435 160.327 236.435 158.327 211.5 166.5C210.85 166.196 210.183 165.863 209.5 165.5C209.912 166.782 209.246 167.782 207.5 168.5C204.78 170.527 201.78 172.193 198.5 173.5C196.973 173.427 195.973 174.094 195.5 175.5C195.167 176.5 194.5 177.167 193.5 177.5C190.629 176.014 189.295 177.014 189.5 180.5C189.167 181.5 188.5 182.167 187.5 182.5C185.5 182.5 184.5 183.5 184.5 185.5C182.833 187.833 180.833 189.833 178.5 191.5C177.094 191.973 176.427 192.973 176.5 194.5C174.89 198.1 172.89 201.434 170.5 204.5C168.461 205.911 167.461 207.911 167.5 210.5C165.194 214.085 163.861 218.085 163.5 222.5C163.662 228.698 160.996 231.031 155.5 229.5C155.167 228.5 154.5 227.833 153.5 227.5C153.724 223.821 154.058 220.154 154.5 216.5C154.5 216.167 154.5 215.833 154.5 215.5C156.28 214.01 156.946 212.01 156.5 209.5C158.213 208.365 158.88 206.698 158.5 204.5C158.992 202.181 159.992 200.181 161.5 198.5C162.906 198.027 163.573 197.027 163.5 195.5C163.328 194.508 163.662 193.842 164.5 193.5C166.547 191.45 168.214 189.117 169.5 186.5C171.914 185.089 173.581 183.089 174.5 180.5C177.5 178.167 180.167 175.5 182.5 172.5C184.404 172.262 185.738 171.262 186.5 169.5C188.749 168.92 190.415 167.587 191.5 165.5C195.335 163.75 199.001 161.75 202.5 159.5C203.209 158.596 204.209 158.263 205.5 158.5C207.153 158.34 208.486 157.674 209.5 156.5C211.898 156.741 213.898 156.074 215.5 154.5C218.428 154.435 221.095 153.768 223.5 152.5C246.631 148.088 268.297 151.754 288.5 163.5Z" fill="#2F2F2F"/>
<path opacity="0.635" fill-rule="evenodd" clip-rule="evenodd" d="M223.5 152.5C221.095 153.768 218.428 154.435 215.5 154.5C217.838 152.96 220.505 152.294 223.5 152.5Z" fill="#989898"/>
<path opacity="0.455" fill-rule="evenodd" clip-rule="evenodd" d="M129.5 153.5C129.573 155.027 128.906 156.027 127.5 156.5C127.427 154.973 128.094 153.973 129.5 153.5Z" fill="#969696"/>
<path opacity="0.718" fill-rule="evenodd" clip-rule="evenodd" d="M215.5 154.5C213.898 156.074 211.898 156.741 209.5 156.5C211.214 155.262 213.214 154.595 215.5 154.5Z" fill="#8F8F8F"/>
<path opacity="0.576" fill-rule="evenodd" clip-rule="evenodd" d="M209.5 156.5C208.486 157.674 207.153 158.34 205.5 158.5C206.287 156.896 207.62 156.229 209.5 156.5Z" fill="#A1A1A1"/>
<path opacity="0.01" fill-rule="evenodd" clip-rule="evenodd" d="M202.5 159.5C199.001 161.75 195.335 163.75 191.5 165.5C194.4 162.214 198.067 160.214 202.5 159.5Z" fill="#EAEAEA"/>
<path opacity="0.875" fill-rule="evenodd" clip-rule="evenodd" d="M135.5 163.5C134.488 164.872 133.488 166.205 132.5 167.5C132.5 166.167 132.5 164.833 132.5 163.5C133.5 163.5 134.5 163.5 135.5 163.5Z" fill="#838383"/>
<path opacity="0.01" fill-rule="evenodd" clip-rule="evenodd" d="M288.5 163.5C290.027 163.427 291.027 164.094 291.5 165.5C289.973 165.573 288.973 164.906 288.5 163.5Z" fill="#D8D8D8"/>
<path opacity="0.971" fill-rule="evenodd" clip-rule="evenodd" d="M211.5 166.5C210.713 168.104 209.38 168.771 207.5 168.5C209.246 167.782 209.912 166.782 209.5 165.5C210.183 165.863 210.85 166.196 211.5 166.5Z" fill="#707070"/>
<path opacity="0.99" fill-rule="evenodd" clip-rule="evenodd" d="M362.5 166.5C362.427 168.027 363.094 169.027 364.5 169.5C365.338 169.842 365.672 170.508 365.5 171.5C365.427 173.027 366.094 174.027 367.5 174.5C371.904 181.984 375.237 189.984 377.5 198.5C377.294 201.495 377.96 204.162 379.5 206.5C380.434 207.568 380.768 208.901 380.5 210.5C380.565 213.428 381.232 216.095 382.5 218.5C382.5 218.833 382.5 219.167 382.5 219.5C383.277 231.484 383.61 243.484 383.5 255.5C383.806 258.385 383.473 261.052 382.5 263.5C381.01 267.942 380.01 272.609 379.5 277.5C378.232 279.905 377.565 282.572 377.5 285.5C373.988 293.355 370.655 301.355 367.5 309.5C365.05 311.629 363.383 314.296 362.5 317.5C361.094 317.973 360.427 318.973 360.5 320.5C360.5 321.167 360.167 321.5 359.5 321.5C358.094 321.973 357.427 322.973 357.5 324.5C357.262 326.404 356.262 327.738 354.5 328.5C353.094 328.973 352.427 329.973 352.5 331.5C350.086 332.911 348.419 334.911 347.5 337.5C346.778 337.082 346.278 336.416 346 335.5C345.086 339.185 344.419 338.852 344 334.5C341.631 335.927 341.131 337.761 342.5 340C339.589 340.698 338.923 342.198 340.5 344.5C338.973 344.427 337.973 345.094 337.5 346.5C335.833 347.5 334.5 348.833 333.5 350.5C333.167 351.5 332.5 352.167 331.5 352.5C329.973 352.427 328.973 353.094 328.5 354.5C328.5 355.167 328.167 355.5 327.5 355.5C325.596 355.738 324.262 356.738 323.5 358.5C321.973 358.427 320.973 359.094 320.5 360.5C320.158 361.338 319.492 361.672 318.5 361.5C316.973 361.427 315.973 362.094 315.5 363.5C313.973 363.427 312.973 364.094 312.5 365.5C311.486 366.674 310.153 367.34 308.5 367.5C305.854 365.865 303.187 364.198 300.5 362.5C300.557 361.391 300.89 360.391 301.5 359.5C301.842 358.662 302.508 358.328 303.5 358.5C305.027 358.573 306.027 357.906 306.5 356.5C308.027 356.573 309.027 355.906 309.5 354.5C309.842 353.662 310.508 353.328 311.5 353.5C313.674 353.25 315.341 352.25 316.5 350.5C318.404 350.262 319.738 349.262 320.5 347.5C322.404 347.262 323.738 346.262 324.5 344.5C327.089 343.581 329.089 341.914 330.5 339.5C333.833 338.167 336.167 335.833 337.5 332.5C337.833 331.5 338.5 330.833 339.5 330.5C341.914 329.089 343.581 327.089 344.5 324.5C346.262 323.738 347.262 322.404 347.5 320.5C348.906 320.027 349.573 319.027 349.5 317.5C351.9 315.704 353.567 313.37 354.5 310.5C354.992 308.181 355.992 306.181 357.5 304.5C359.408 303.514 360.408 301.848 360.5 299.5C361.778 295.333 363.444 291.333 365.5 287.5C367.213 286.365 367.88 284.698 367.5 282.5C367.5 282.167 367.5 281.833 367.5 281.5C369.074 279.898 369.741 277.898 369.5 275.5C369.788 272.061 370.454 268.728 371.5 265.5C373.177 261.455 373.844 257.122 373.5 252.5C374.165 248.849 374.499 245.015 374.5 241C374.659 234.926 373.993 229.092 372.5 223.5C371.407 219.606 370.74 215.606 370.5 211.5C370.286 209.856 370.62 208.356 371.5 207C370.309 206.302 369.309 205.469 368.5 204.5C364.614 192.723 359.614 181.389 353.5 170.5C355.144 165.749 358.144 164.415 362.5 166.5Z" fill="#2B2B2B"/>
<path opacity="0.01" fill-rule="evenodd" clip-rule="evenodd" d="M294.5 167.5C296.749 168.08 298.415 169.413 299.5 171.5C297.251 170.92 295.585 169.587 294.5 167.5Z" fill="#CFCFCF"/>
<path opacity="0.749" fill-rule="evenodd" clip-rule="evenodd" d="M191.5 165.5C190.415 167.587 188.749 168.92 186.5 169.5C187.585 167.413 189.251 166.08 191.5 165.5Z" fill="#969696"/>
<path opacity="0.478" fill-rule="evenodd" clip-rule="evenodd" d="M362.5 166.5C363.906 166.973 364.573 167.973 364.5 169.5C363.094 169.027 362.427 168.027 362.5 166.5Z" fill="#8F8F8F"/>
<path opacity="0.353" fill-rule="evenodd" clip-rule="evenodd" d="M186.5 169.5C185.738 171.262 184.404 172.262 182.5 172.5C183.262 170.738 184.596 169.738 186.5 169.5Z" fill="#BEBEBE"/>
<path opacity="0.278" fill-rule="evenodd" clip-rule="evenodd" d="M283.5 172.5C285.027 172.427 286.027 173.094 286.5 174.5C284.973 174.573 283.973 173.906 283.5 172.5Z" fill="#AFAFAF"/>
<path opacity="0.514" fill-rule="evenodd" clip-rule="evenodd" d="M299.5 171.5C301.754 172.124 303.421 173.457 304.5 175.5C302.205 174.864 300.539 173.531 299.5 171.5Z" fill="#A8A8A8"/>
<path opacity="0.467" fill-rule="evenodd" clip-rule="evenodd" d="M365.5 171.5C366.906 171.973 367.573 172.973 367.5 174.5C366.094 174.027 365.427 173.027 365.5 171.5Z" fill="#8C8C8C"/>
<path opacity="0.01" fill-rule="evenodd" clip-rule="evenodd" d="M198.5 173.5C198.027 174.906 197.027 175.573 195.5 175.5C195.973 174.094 196.973 173.427 198.5 173.5Z" fill="#DCDCDC"/>
<path opacity="0.047" fill-rule="evenodd" clip-rule="evenodd" d="M128.5 173.5C128.573 175.027 127.906 176.027 126.5 176.5C126.427 174.973 127.094 173.973 128.5 173.5Z" fill="#DADADA"/>
<path opacity="0.384" fill-rule="evenodd" clip-rule="evenodd" d="M182.5 172.5C180.167 175.5 177.5 178.167 174.5 180.5C176.167 176.833 178.833 174.167 182.5 172.5Z" fill="#C6C6C6"/>
<path opacity="0.541" fill-rule="evenodd" clip-rule="evenodd" d="M286.5 174.5C288.404 174.738 289.738 175.738 290.5 177.5C288.596 177.262 287.262 176.262 286.5 174.5Z" fill="#9C9C9C"/>
<path opacity="0.953" fill-rule="evenodd" clip-rule="evenodd" d="M193.5 177.5C192.205 178.488 190.872 179.488 189.5 180.5C189.295 177.014 190.629 176.014 193.5 177.5Z" fill="#717171"/>
<path opacity="0.357" fill-rule="evenodd" clip-rule="evenodd" d="M304.5 175.5C306.914 176.911 308.581 178.911 309.5 181.5C307.086 180.089 305.419 178.089 304.5 175.5Z" fill="#B9B9B9"/>
<path opacity="0.369" fill-rule="evenodd" clip-rule="evenodd" d="M290.5 177.5C293.089 178.419 295.089 180.086 296.5 182.5C293.911 181.581 291.911 179.914 290.5 177.5Z" fill="#B6B6B6"/>
<path opacity="0.99" fill-rule="evenodd" clip-rule="evenodd" d="M151.5 144.5C150.5 146.167 149.167 147.5 147.5 148.5C145.183 147.466 144.183 148.466 144.5 151.5C143.178 151.67 142.011 151.337 141 150.5C140.5 151.667 139.667 152.5 138.5 153C139.308 153.308 139.975 153.808 140.5 154.5C138.547 155.69 136.713 157.024 135 158.5C135.019 160.107 135.185 161.774 135.5 163.5C134.5 163.5 133.5 163.5 132.5 163.5C132.5 164.833 132.5 166.167 132.5 167.5C131.525 169.795 130.192 171.795 128.5 173.5C127.094 173.973 126.427 174.973 126.5 176.5C118.361 191.918 113.027 208.252 110.5 225.5C107.884 236.164 107.884 246.83 110.5 257.5C111.535 261.739 112.201 266.072 112.5 270.5C112.41 273.152 113.076 275.485 114.5 277.5C115.434 278.568 115.768 279.901 115.5 281.5C115.12 283.698 115.787 285.365 117.5 286.5C118.537 287.93 119.204 289.597 119.5 291.5C119.12 293.698 119.787 295.365 121.5 296.5C124.666 301.499 127.333 306.832 129.5 312.5C128.734 317.15 126.068 318.65 121.5 317C111.893 303.274 105.393 288.107 102 271.5C97.7163 252.81 97.5496 234.144 101.5 215.5C103.04 213.162 103.706 210.495 103.5 207.5C103.232 205.901 103.566 204.568 104.5 203.5C105.186 202.152 106.186 200.985 107.5 200C106.663 198.989 106.33 197.822 106.5 196.5C110.905 181.685 117.905 168.352 127.5 156.5C128.906 156.027 129.573 155.027 129.5 153.5C132.792 148.54 136.792 144.207 141.5 140.5C143.258 140.123 144.925 139.456 146.5 138.5C147.192 139.025 147.692 139.692 148 140.5C148.333 140.167 148.667 139.833 149 139.5C149.5 141.333 150.667 142.5 152.5 143C151.944 143.383 151.611 143.883 151.5 144.5Z" fill="#313131"/>
<path opacity="0.663" fill-rule="evenodd" clip-rule="evenodd" d="M174.5 180.5C173.581 183.089 171.914 185.089 169.5 186.5C170.419 183.911 172.086 181.911 174.5 180.5Z" fill="#929292"/>
<path opacity="0.012" fill-rule="evenodd" clip-rule="evenodd" d="M187.5 182.5C186.833 183.833 185.833 184.833 184.5 185.5C184.5 183.5 185.5 182.5 187.5 182.5Z" fill="#DEDEDE"/>
<path opacity="0.227" fill-rule="evenodd" clip-rule="evenodd" d="M311.5 183.5C313.587 184.585 314.92 186.251 315.5 188.5C313.413 187.415 312.08 185.749 311.5 183.5Z" fill="#B2B2B2"/>
<path opacity="0.082" fill-rule="evenodd" clip-rule="evenodd" d="M169.5 186.5C168.214 189.117 166.547 191.45 164.5 193.5C165.01 190.326 166.677 187.992 169.5 186.5Z" fill="#C4C4C4"/>
<path opacity="0.016" fill-rule="evenodd" clip-rule="evenodd" d="M178.5 191.5C178.573 193.027 177.906 194.027 176.5 194.5C176.427 192.973 177.094 191.973 178.5 191.5Z" fill="#D6D6D6"/>
<path opacity="0.388" fill-rule="evenodd" clip-rule="evenodd" d="M316.5 190.5C317.906 190.973 318.573 191.973 318.5 193.5C317.094 193.027 316.427 192.027 316.5 190.5Z" fill="#9F9F9F"/>
<path opacity="0.329" fill-rule="evenodd" clip-rule="evenodd" d="M318.5 193.5C319.906 193.973 320.573 194.973 320.5 196.5C319.094 196.027 318.427 195.027 318.5 193.5Z" fill="#A8A8A8"/>
<path opacity="0.173" fill-rule="evenodd" clip-rule="evenodd" d="M163.5 195.5C163.573 197.027 162.906 198.027 161.5 198.5C161.427 196.973 162.094 195.973 163.5 195.5Z" fill="#C5C5C5"/>
<path opacity="0.545" fill-rule="evenodd" clip-rule="evenodd" d="M106.5 196.5C106.33 197.822 106.663 198.989 107.5 200C106.186 200.985 105.186 202.152 104.5 203.5C104.41 200.848 105.076 198.515 106.5 196.5Z" fill="#7A7A7A"/>
<path opacity="0.153" fill-rule="evenodd" clip-rule="evenodd" d="M322.5 200.5C323.906 200.973 324.573 201.973 324.5 203.5C323.094 203.027 322.427 202.027 322.5 200.5Z" fill="#C8C8C8"/>
<path opacity="0.725" fill-rule="evenodd" clip-rule="evenodd" d="M377.5 198.5C378.768 200.905 379.435 203.572 379.5 206.5C377.96 204.162 377.294 201.495 377.5 198.5Z" fill="#7D7D7D"/>
<path opacity="0.118" fill-rule="evenodd" clip-rule="evenodd" d="M170.5 204.5C170.008 206.819 169.008 208.819 167.5 210.5C167.461 207.911 168.461 205.911 170.5 204.5Z" fill="#D4D4D4"/>
<path opacity="0.788" fill-rule="evenodd" clip-rule="evenodd" d="M324.5 203.5C325.931 204.78 326.598 206.447 326.5 208.5C324.787 207.365 324.12 205.698 324.5 203.5Z" fill="#989898"/>
<path opacity="0.896" fill-rule="evenodd" clip-rule="evenodd" d="M368.5 204.5C369.309 205.469 370.309 206.302 371.5 207C370.62 208.356 370.286 209.856 370.5 211.5C369.388 209.401 368.721 207.067 368.5 204.5Z" fill="#707070"/>
<path opacity="0.816" fill-rule="evenodd" clip-rule="evenodd" d="M158.5 204.5C158.88 206.698 158.213 208.365 156.5 209.5C156.402 207.447 157.069 205.78 158.5 204.5Z" fill="#8D8D8D"/>
<path opacity="0.992" fill-rule="evenodd" clip-rule="evenodd" d="M276.5 208.5C279.198 208.845 281.198 210.178 282.5 212.5C282.427 214.027 283.094 215.027 284.5 215.5C285.404 216.209 285.737 217.209 285.5 218.5C285.998 221.681 285.165 224.347 283 226.5C281.609 224.285 279.943 224.285 278 226.5C277.292 225.619 276.458 224.953 275.5 224.5C275.673 219.677 273.339 217.677 268.5 218.5C267.094 218.973 266.427 219.973 266.5 221.5C266.5 222.167 266.167 222.5 265.5 222.5C263.596 222.738 262.262 223.738 261.5 225.5C259.086 226.911 257.419 228.911 256.5 231.5C256.5 232.167 256.167 232.5 255.5 232.5C251.5 234.5 248.5 237.5 246.5 241.5C246.5 242.167 246.167 242.5 245.5 242.5C244.391 242.557 243.391 242.89 242.5 243.5C241.417 243.461 240.417 243.127 239.5 242.5C237.669 243.929 235.669 244.429 233.5 244C234.167 243.333 234.833 242.667 235.5 242C234.244 241.583 233.577 240.75 233.5 239.5C243.5 230.167 253.167 220.5 262.5 210.5C263.496 210.414 264.329 210.748 265 211.5C265.317 209.699 265.984 209.366 267 210.5C269.804 208.656 272.97 207.989 276.5 208.5Z" fill="#282828"/>
<path fill-rule="evenodd" clip-rule="evenodd" d="M276.5 208.5C272.97 207.989 269.804 208.656 267 210.5C265.984 209.366 265.317 209.699 265 211.5C264.329 210.748 263.496 210.414 262.5 210.5C263.6 209.442 264.934 208.608 266.5 208C270.027 207.192 273.36 207.359 276.5 208.5Z" fill="#626262"/>
<path opacity="0.796" fill-rule="evenodd" clip-rule="evenodd" d="M156.5 209.5C156.946 212.01 156.28 214.01 154.5 215.5C154.875 213.302 155.542 211.302 156.5 209.5Z" fill="#868686"/>
<path opacity="0.231" fill-rule="evenodd" clip-rule="evenodd" d="M167.5 210.5C166.739 214.784 165.405 218.784 163.5 222.5C163.861 218.085 165.194 214.085 167.5 210.5Z" fill="#CACACA"/>
<path opacity="0.435" fill-rule="evenodd" clip-rule="evenodd" d="M103.5 207.5C103.706 210.495 103.04 213.162 101.5 215.5C101.565 212.572 102.232 209.905 103.5 207.5Z" fill="#9B9B9B"/>
<path opacity="0.4" fill-rule="evenodd" clip-rule="evenodd" d="M282.5 212.5C283.906 212.973 284.573 213.973 284.5 215.5C283.094 215.027 282.427 214.027 282.5 212.5Z" fill="#A4A4A4"/>
<path opacity="0.553" fill-rule="evenodd" clip-rule="evenodd" d="M326.5 208.5C328.072 211.215 329.072 214.215 329.5 217.5C327.132 215.044 326.132 212.044 326.5 208.5Z" fill="#A8A8A8"/>
<path opacity="0.263" fill-rule="evenodd" clip-rule="evenodd" d="M316.5 212.5C317.931 213.78 318.598 215.447 318.5 217.5C317.069 216.22 316.402 214.553 316.5 212.5Z" fill="#C2C2C2"/>
<path opacity="0.357" fill-rule="evenodd" clip-rule="evenodd" d="M380.5 210.5C382.04 212.838 382.706 215.505 382.5 218.5C381.232 216.095 380.565 213.428 380.5 210.5Z" fill="#BABABA"/>
<path opacity="0.318" fill-rule="evenodd" clip-rule="evenodd" d="M262.5 210.5C253.167 220.5 243.5 230.167 233.5 239.5C229.229 236.899 225.563 233.566 222.5 229.5C226.402 231.893 229.902 234.893 233 238.5C242.421 228.575 252.254 219.242 262.5 210.5Z" fill="#C1C1C1"/>
<path opacity="0.01" fill-rule="evenodd" clip-rule="evenodd" d="M268.5 218.5C268.573 220.027 267.906 221.027 266.5 221.5C266.427 219.973 267.094 218.973 268.5 218.5Z" fill="#D6D6D6"/>
<path opacity="0.553" fill-rule="evenodd" clip-rule="evenodd" d="M154.5 216.5C154.058 220.154 153.724 223.821 153.5 227.5C152.226 223.735 152.559 220.069 154.5 216.5Z" fill="#8E8E8E"/>
<path opacity="0.01" fill-rule="evenodd" clip-rule="evenodd" d="M265.5 222.5C264.738 224.262 263.404 225.262 261.5 225.5C262.262 223.738 263.596 222.738 265.5 222.5Z" fill="#E2E2E2"/>
<path opacity="0.073" fill-rule="evenodd" clip-rule="evenodd" d="M329.5 217.5C331.531 220.708 331.865 224.041 330.5 227.5C330.384 224.14 330.051 220.807 329.5 217.5Z" fill="#EDEDED"/>
<path opacity="0.192" fill-rule="evenodd" clip-rule="evenodd" d="M320.5 225.5C322.026 228.893 324.693 230.226 328.5 229.5C326.712 230.622 324.712 230.789 322.5 230C320.963 228.89 320.297 227.39 320.5 225.5Z" fill="#CCCCCC"/>
<path opacity="0.01" fill-rule="evenodd" clip-rule="evenodd" d="M153.5 227.5C154.5 227.833 155.167 228.5 155.5 229.5C154.167 229.5 153.5 228.833 153.5 227.5Z" fill="#C8C8C8"/>
<path opacity="0.01" fill-rule="evenodd" clip-rule="evenodd" d="M284.5 229.5C284.573 231.027 283.906 232.027 282.5 232.5C282.427 230.973 283.094 229.973 284.5 229.5Z" fill="#DFDFDF"/>
<path opacity="0.01" fill-rule="evenodd" clip-rule="evenodd" d="M282.5 232.5C281.167 234.5 279.5 236.167 277.5 237.5C278.167 234.833 279.833 233.167 282.5 232.5Z" fill="#E1E1E1"/>
<path opacity="0.243" fill-rule="evenodd" clip-rule="evenodd" d="M201.5 232.5C201.573 234.027 200.906 235.027 199.5 235.5C199.427 233.973 200.094 232.973 201.5 232.5Z" fill="#B4B4B4"/>
<path opacity="0.239" fill-rule="evenodd" clip-rule="evenodd" d="M382.5 219.5C384.007 226.438 384.673 233.604 384.5 241C384.499 246.012 384.166 250.845 383.5 255.5C383.61 243.484 383.277 231.484 382.5 219.5Z" fill="#C2C2C2"/>
<path opacity="0.616" fill-rule="evenodd" clip-rule="evenodd" d="M110.5 225.5C109.49 236.187 109.49 246.854 110.5 257.5C107.884 246.83 107.884 236.164 110.5 225.5Z" fill="#9F9F9F"/>
<path opacity="0.29" fill-rule="evenodd" clip-rule="evenodd" d="M372.5 223.5C373.993 229.092 374.659 234.926 374.5 241C374.499 245.015 374.165 248.849 373.5 252.5C373.62 242.812 373.287 233.146 372.5 223.5Z" fill="#9E9E9E"/>
<path opacity="0.01" fill-rule="evenodd" clip-rule="evenodd" d="M272.5 242.5C270.833 244.833 268.833 246.833 266.5 248.5C267.5 245.5 269.5 243.5 272.5 242.5Z" fill="#E1E1E1"/>
<path opacity="0.471" fill-rule="evenodd" clip-rule="evenodd" d="M201.5 250.5C206.44 253.77 210.773 257.77 214.5 262.5C209.56 259.23 205.227 255.23 201.5 250.5Z" fill="#C0C0C0"/>
<path opacity="0.991" fill-rule="evenodd" clip-rule="evenodd" d="M285.5 218.5C286.902 222.29 286.569 225.956 284.5 229.5C283.094 229.973 282.427 230.973 282.5 232.5C279.833 233.167 278.167 234.833 277.5 237.5C276.167 239.5 274.5 241.167 272.5 242.5C269.5 243.5 267.5 245.5 266.5 248.5C265.167 250.5 263.5 252.167 261.5 253.5C259.167 253.833 257.833 255.167 257.5 257.5C256.5 259.167 255.167 260.5 253.5 261.5C250.167 262.833 247.833 265.167 246.5 268.5C245.127 268.343 243.793 268.51 242.5 269C243.252 269.671 243.586 270.504 243.5 271.5C238.802 275.398 233.468 276.398 227.5 274.5C227.027 273.094 226.027 272.427 224.5 272.5C222.1 269.097 219.1 266.43 215.5 264.5C215.167 263.833 214.833 263.167 214.5 262.5C210.773 257.77 206.44 253.77 201.5 250.5C198.5 245.84 197.833 240.84 199.5 235.5C200.906 235.027 201.573 234.027 201.5 232.5C207.634 224.642 214.634 223.642 222.5 229.5C225.563 233.566 229.229 236.899 233.5 239.5C233.577 240.75 234.244 241.583 235.5 242C234.833 242.667 234.167 243.333 233.5 244C235.669 244.429 237.669 243.929 239.5 242.5C240.417 243.127 241.417 243.461 242.5 243.5C241.833 244.5 241.167 245.5 240.5 246.5C238.404 250.796 235.07 252.629 230.5 252C226.63 248.298 222.963 244.464 219.5 240.5C219.167 239.5 218.5 238.833 217.5 238.5C213.918 235.628 211.251 236.295 209.5 240.5C209.719 241.938 210.219 243.271 211 244.5C217.5 251 224 257.5 230.5 264C232.167 264.667 233.833 264.667 235.5 264C248.701 250.631 262.035 237.465 275.5 224.5C276.458 224.953 277.292 225.619 278 226.5C279.943 224.285 281.609 224.285 283 226.5C285.165 224.347 285.998 221.681 285.5 218.5Z" fill="#2F2F2F"/>
<path opacity="0.012" fill-rule="evenodd" clip-rule="evenodd" d="M245.5 242.5C244.415 244.587 242.749 245.92 240.5 246.5C241.167 245.5 241.833 244.5 242.5 243.5C243.391 242.89 244.391 242.557 245.5 242.5Z" fill="#E6E6E6"/>
<path opacity="0.01" fill-rule="evenodd" clip-rule="evenodd" d="M217.5 238.5C218.5 238.833 219.167 239.5 219.5 240.5C218.167 240.5 217.5 239.833 217.5 238.5Z" fill="#CACACA"/>
<path opacity="0.01" fill-rule="evenodd" clip-rule="evenodd" d="M255.5 232.5C252.833 235.833 249.833 238.833 246.5 241.5C248.5 237.5 251.5 234.5 255.5 232.5Z" fill="#E4E4E4"/>
<path opacity="0.012" fill-rule="evenodd" clip-rule="evenodd" d="M261.5 225.5C260.581 228.089 258.914 230.089 256.5 231.5C257.419 228.911 259.086 226.911 261.5 225.5Z" fill="#E3E3E3"/>
<path opacity="0.188" fill-rule="evenodd" clip-rule="evenodd" d="M328.5 253.5C325.212 253.016 322.545 254.016 320.5 256.5C320.511 254.983 321.177 253.816 322.5 253C324.712 252.211 326.712 252.378 328.5 253.5Z" fill="#D3D3D3"/>
<path opacity="0.076" fill-rule="evenodd" clip-rule="evenodd" d="M328.5 253.5C330.714 254.392 331.714 256.058 331.5 258.5C331.276 261.08 330.609 263.414 329.5 265.5C329.443 263.116 329.777 260.782 330.5 258.5C329.813 256.823 329.146 255.156 328.5 253.5Z" fill="#D6D6D6"/>
<path opacity="0.455" fill-rule="evenodd" clip-rule="evenodd" d="M373.5 252.5C373.844 257.122 373.177 261.455 371.5 265.5C371.77 260.972 372.437 256.639 373.5 252.5Z" fill="#B3B3B3"/>
<path opacity="0.078" fill-rule="evenodd" clip-rule="evenodd" d="M382.5 263.5C382.502 268.5 381.502 273.167 379.5 277.5C380.01 272.609 381.01 267.942 382.5 263.5Z" fill="#CFCFCF"/>
<path opacity="0.129" fill-rule="evenodd" clip-rule="evenodd" d="M329.5 265.5C327.826 276.176 323.492 285.509 316.5 293.5C321.937 284.629 326.27 275.296 329.5 265.5Z" fill="#DDDDDD"/>
<path opacity="0.71" fill-rule="evenodd" clip-rule="evenodd" d="M112.5 270.5C113.924 272.515 114.59 274.848 114.5 277.5C113.076 275.485 112.41 273.152 112.5 270.5Z" fill="#8D8D8D"/>
<path opacity="0.69" fill-rule="evenodd" clip-rule="evenodd" d="M369.5 275.5C369.741 277.898 369.074 279.898 367.5 281.5C367.595 279.214 368.262 277.214 369.5 275.5Z" fill="#939393"/>
<path opacity="0.012" fill-rule="evenodd" clip-rule="evenodd" d="M379.5 277.5C379.706 280.495 379.04 283.162 377.5 285.5C377.565 282.572 378.232 279.905 379.5 277.5Z" fill="#DDDDDD"/>
<path opacity="0.745" fill-rule="evenodd" clip-rule="evenodd" d="M115.5 281.5C116.537 282.93 117.204 284.597 117.5 286.5C115.787 285.365 115.12 283.698 115.5 281.5Z" fill="#8F8F8F"/>
<path opacity="0.769" fill-rule="evenodd" clip-rule="evenodd" d="M367.5 282.5C367.88 284.698 367.213 286.365 365.5 287.5C365.796 285.597 366.463 283.93 367.5 282.5Z" fill="#8B8B8B"/>
<path opacity="0.788" fill-rule="evenodd" clip-rule="evenodd" d="M119.5 291.5C120.537 292.93 121.204 294.597 121.5 296.5C119.787 295.365 119.12 293.698 119.5 291.5Z" fill="#8A8A8A"/>
<path opacity="0.01" fill-rule="evenodd" clip-rule="evenodd" d="M316.5 293.5C316.573 295.027 315.906 296.027 314.5 296.5C314.427 294.973 315.094 293.973 316.5 293.5Z" fill="#EEEEEE"/>
<path opacity="0.533" fill-rule="evenodd" clip-rule="evenodd" d="M168.5 295.5C170.446 296.035 171.446 297.368 171.5 299.5C170.026 298.564 169.026 297.23 168.5 295.5Z" fill="#9D9D9D"/>
<path opacity="0.902" fill-rule="evenodd" clip-rule="evenodd" d="M360.5 299.5C360.408 301.848 359.408 303.514 357.5 304.5C357.75 302.326 358.75 300.659 360.5 299.5Z" fill="#8C8C8C"/>
<path opacity="0.018" fill-rule="evenodd" clip-rule="evenodd" d="M377.5 285.5C375.798 294.23 372.465 302.23 367.5 309.5C370.655 301.355 373.988 293.355 377.5 285.5Z" fill="#E6E6E6"/>
<path opacity="0.01" fill-rule="evenodd" clip-rule="evenodd" d="M175.5 303.5C177.833 305.167 179.833 307.167 181.5 309.5C178.5 308.5 176.5 306.5 175.5 303.5Z" fill="#D0D0D0"/>
<path opacity="0.01" fill-rule="evenodd" clip-rule="evenodd" d="M313.5 297.5C310.167 304.167 305.167 309.167 298.5 312.5C303.833 307.833 308.833 302.833 313.5 297.5Z" fill="#EEEEEE"/>
<path opacity="0.994" fill-rule="evenodd" clip-rule="evenodd" d="M160.5 253.5C160.427 255.027 161.094 256.027 162.5 256.5C162.32 260.286 163.32 263.619 165.5 266.5C165.054 269.01 165.72 271.01 167.5 272.5C168.736 274.649 169.736 276.982 170.5 279.5C170.427 281.027 171.094 282.027 172.5 282.5C172.427 284.027 173.094 285.027 174.5 285.5C174.427 287.027 175.094 288.027 176.5 288.5C177.488 289.795 178.488 291.128 179.5 292.5C181.833 296.833 185.167 300.167 189.5 302.5C190.5 302.833 191.167 303.5 191.5 304.5C191.973 305.906 192.973 306.573 194.5 306.5C195.167 306.5 195.5 306.833 195.5 307.5C195.973 308.906 196.973 309.573 198.5 309.5C199.492 309.328 200.158 309.662 200.5 310.5C201.287 312.104 202.62 312.771 204.5 312.5C208.991 314.247 213.325 316.247 217.5 318.5C219.905 319.768 222.572 320.435 225.5 320.5C230.59 321.965 235.923 322.632 241.5 322.5C246.755 322.666 251.755 321.999 256.5 320.5C259.553 320.889 262.22 320.223 264.5 318.5C267.01 318.946 269.01 318.28 270.5 316.5C274.582 315.624 278.249 313.957 281.5 311.5C281.842 310.662 282.508 310.328 283.5 310.5C285.404 310.262 286.738 309.262 287.5 307.5C289.404 307.262 290.738 306.262 291.5 304.5C297.167 300.833 301.833 296.167 305.5 290.5C306.906 290.027 307.573 289.027 307.5 287.5C308.906 287.027 309.573 286.027 309.5 284.5C310.906 284.027 311.573 283.027 311.5 281.5C311.992 279.181 312.992 277.181 314.5 275.5C315.674 274.486 316.34 273.153 316.5 271.5C316.5 271.167 316.5 270.833 316.5 270.5C317.738 268.786 318.405 266.786 318.5 264.5C320.163 262.562 320.829 260.228 320.5 257.5C320.5 257.167 320.5 256.833 320.5 256.5C322.545 254.016 325.212 253.016 328.5 253.5C329.146 255.156 329.813 256.823 330.5 258.5C329.777 260.782 329.443 263.116 329.5 265.5C326.27 275.296 321.937 284.629 316.5 293.5C315.094 293.973 314.427 294.973 314.5 296.5C314.5 297.167 314.167 297.5 313.5 297.5C308.833 302.833 303.833 307.833 298.5 312.5C298.5 313.167 298.167 313.5 297.5 313.5C295.973 313.427 294.973 314.094 294.5 315.5C294.5 316.167 294.167 316.5 293.5 316.5C291.801 316.34 290.134 316.506 288.5 317C289.056 317.383 289.389 317.883 289.5 318.5C289.5 319.167 289.167 319.5 288.5 319.5C286.973 319.427 285.973 320.094 285.5 321.5C264.532 332.941 242.532 335.607 219.5 329.5C217.562 327.837 215.228 327.171 212.5 327.5C205.703 325.266 199.37 322.266 193.5 318.5C193.027 317.094 192.027 316.427 190.5 316.5C189.738 314.738 188.404 313.738 186.5 313.5C186.027 312.094 185.027 311.427 183.5 311.5C182.5 311.167 181.833 310.5 181.5 309.5C179.833 307.167 177.833 305.167 175.5 303.5C173.833 302.5 172.5 301.167 171.5 299.5C171.446 297.368 170.446 296.035 168.5 295.5C158.54 283.616 153.54 269.95 153.5 254.5C155.615 252.385 157.949 252.051 160.5 253.5Z" fill="#2D2D2D"/>
<path opacity="0.298" fill-rule="evenodd" clip-rule="evenodd" d="M287.5 307.5C286.738 309.262 285.404 310.262 283.5 310.5C284.262 308.738 285.596 307.738 287.5 307.5Z" fill="#C6C6C6"/>
<path opacity="0.01" fill-rule="evenodd" clip-rule="evenodd" d="M195.5 307.5C197.027 307.427 198.027 308.094 198.5 309.5C196.973 309.573 195.973 308.906 195.5 307.5Z" fill="#D3D3D3"/>
<path opacity="0.329" fill-rule="evenodd" clip-rule="evenodd" d="M291.5 304.5C290.738 306.262 289.404 307.262 287.5 307.5C288.262 305.738 289.596 304.738 291.5 304.5Z" fill="#C4C4C4"/>
<path opacity="0.02" fill-rule="evenodd" clip-rule="evenodd" d="M191.5 304.5C193.027 304.427 194.027 305.094 194.5 306.5C192.973 306.573 191.973 305.906 191.5 304.5Z" fill="#CFCFCF"/>
<path opacity="0.376" fill-rule="evenodd" clip-rule="evenodd" d="M179.5 292.5C183.167 295.5 186.5 298.833 189.5 302.5C185.167 300.167 181.833 296.833 179.5 292.5Z" fill="#C3C3C3"/>
<path opacity="0.243" fill-rule="evenodd" clip-rule="evenodd" d="M305.5 290.5C301.833 296.167 297.167 300.833 291.5 304.5C295.833 299.5 300.5 294.833 305.5 290.5Z" fill="#CACACA"/>
<path opacity="0.137" fill-rule="evenodd" clip-rule="evenodd" d="M307.5 287.5C307.573 289.027 306.906 290.027 305.5 290.5C305.427 288.973 306.094 287.973 307.5 287.5Z" fill="#D7D7D7"/>
<path opacity="0.18" fill-rule="evenodd" clip-rule="evenodd" d="M174.5 285.5C175.906 285.973 176.573 286.973 176.5 288.5C175.094 288.027 174.427 287.027 174.5 285.5Z" fill="#CCCCCC"/>
<path opacity="0.247" fill-rule="evenodd" clip-rule="evenodd" d="M309.5 284.5C309.573 286.027 308.906 287.027 307.5 287.5C307.427 285.973 308.094 284.973 309.5 284.5Z" fill="#C6C6C6"/>
<path opacity="0.224" fill-rule="evenodd" clip-rule="evenodd" d="M172.5 282.5C173.906 282.973 174.573 283.973 174.5 285.5C173.094 285.027 172.427 284.027 172.5 282.5Z" fill="#C5C5C5"/>
<path opacity="0.275" fill-rule="evenodd" clip-rule="evenodd" d="M311.5 281.5C311.573 283.027 310.906 284.027 309.5 284.5C309.427 282.973 310.094 281.973 311.5 281.5Z" fill="#BBBBBB"/>
<path opacity="0.278" fill-rule="evenodd" clip-rule="evenodd" d="M170.5 279.5C171.906 279.973 172.573 280.973 172.5 282.5C171.094 282.027 170.427 281.027 170.5 279.5Z" fill="#B9B9B9"/>
<path opacity="0.31" fill-rule="evenodd" clip-rule="evenodd" d="M224.5 272.5C226.027 272.427 227.027 273.094 227.5 274.5C225.973 274.573 224.973 273.906 224.5 272.5Z" fill="#AEAEAE"/>
<path opacity="0.333" fill-rule="evenodd" clip-rule="evenodd" d="M316.5 271.5C316.34 273.153 315.674 274.486 314.5 275.5C314.229 273.62 314.896 272.287 316.5 271.5Z" fill="#D3D3D3"/>
<path opacity="0.729" fill-rule="evenodd" clip-rule="evenodd" d="M165.5 266.5C166.458 268.302 167.125 270.302 167.5 272.5C165.72 271.01 165.054 269.01 165.5 266.5Z" fill="#9D9D9D"/>
<path opacity="0.902" fill-rule="evenodd" clip-rule="evenodd" d="M246.5 268.5C245.833 269.833 244.833 270.833 243.5 271.5C243.586 270.504 243.252 269.671 242.5 269C243.793 268.51 245.127 268.343 246.5 268.5Z" fill="#7D7D7D"/>
<path opacity="0.01" fill-rule="evenodd" clip-rule="evenodd" d="M318.5 264.5C318.405 266.786 317.738 268.786 316.5 270.5C316.259 268.102 316.926 266.102 318.5 264.5Z" fill="#EBEBEB"/>
<path opacity="0.01" fill-rule="evenodd" clip-rule="evenodd" d="M253.5 261.5C251.5 264.167 249.167 266.5 246.5 268.5C247.833 265.167 250.167 262.833 253.5 261.5Z" fill="#E0E0E0"/>
<path opacity="0.471" fill-rule="evenodd" clip-rule="evenodd" d="M215.5 264.5C219.1 266.43 222.1 269.097 224.5 272.5C220.9 270.57 217.9 267.903 215.5 264.5Z" fill="#BFBFBF"/>
<path opacity="0.682" fill-rule="evenodd" clip-rule="evenodd" d="M320.5 257.5C320.829 260.228 320.163 262.562 318.5 264.5C318.721 261.933 319.388 259.599 320.5 257.5Z" fill="#AAAAAA"/>
<path opacity="0.714" fill-rule="evenodd" clip-rule="evenodd" d="M162.5 256.5C163.87 259.619 164.87 262.952 165.5 266.5C163.32 263.619 162.32 260.286 162.5 256.5Z" fill="#A5A5A5"/>
<path opacity="0.475" fill-rule="evenodd" clip-rule="evenodd" d="M160.5 253.5C161.906 253.973 162.573 254.973 162.5 256.5C161.094 256.027 160.427 255.027 160.5 253.5Z" fill="#999999"/>
<path opacity="0.01" fill-rule="evenodd" clip-rule="evenodd" d="M261.5 253.5C260.5 255.167 259.167 256.5 257.5 257.5C257.833 255.167 259.167 253.833 261.5 253.5Z" fill="#E3E3E3"/>
<path opacity="0.176" fill-rule="evenodd" clip-rule="evenodd" d="M200.5 310.5C202.153 310.66 203.486 311.326 204.5 312.5C202.62 312.771 201.287 312.104 200.5 310.5Z" fill="#D2D2D2"/>
<path opacity="0.098" fill-rule="evenodd" clip-rule="evenodd" d="M281.5 311.5C278.249 313.957 274.582 315.624 270.5 316.5C273.751 314.043 277.418 312.376 281.5 311.5Z" fill="#D3D3D3"/>
<path opacity="0.047" fill-rule="evenodd" clip-rule="evenodd" d="M367.5 309.5C366.617 312.704 364.95 315.371 362.5 317.5C363.383 314.296 365.05 311.629 367.5 309.5Z" fill="#DEDEDE"/>
<path opacity="0.278" fill-rule="evenodd" clip-rule="evenodd" d="M183.5 311.5C185.027 311.427 186.027 312.094 186.5 313.5C184.973 313.573 183.973 312.906 183.5 311.5Z" fill="#BDBDBD"/>
<path opacity="0.345" fill-rule="evenodd" clip-rule="evenodd" d="M354.5 310.5C353.567 313.37 351.9 315.704 349.5 317.5C350.433 314.63 352.1 312.296 354.5 310.5Z" fill="#C4C4C4"/>
<path opacity="0.557" fill-rule="evenodd" clip-rule="evenodd" d="M186.5 313.5C188.404 313.738 189.738 314.738 190.5 316.5C188.596 316.262 187.262 315.262 186.5 313.5Z" fill="#939393"/>
<path opacity="0.01" fill-rule="evenodd" clip-rule="evenodd" d="M297.5 313.5C297.027 314.906 296.027 315.573 294.5 315.5C294.973 314.094 295.973 313.427 297.5 313.5Z" fill="#E9E9E9"/>
<path opacity="0.967" fill-rule="evenodd" clip-rule="evenodd" d="M293.5 316.5C292.486 317.674 291.153 318.34 289.5 318.5C289.389 317.883 289.056 317.383 288.5 317C290.134 316.506 291.801 316.34 293.5 316.5Z" fill="#737373"/>
<path opacity="0.31" fill-rule="evenodd" clip-rule="evenodd" d="M190.5 316.5C192.027 316.427 193.027 317.094 193.5 318.5C191.973 318.573 190.973 317.906 190.5 316.5Z" fill="#B3B3B3"/>
<path opacity="0.827" fill-rule="evenodd" clip-rule="evenodd" d="M270.5 316.5C269.01 318.28 267.01 318.946 264.5 318.5C266.214 317.262 268.214 316.595 270.5 316.5Z" fill="#9C9C9C"/>
<path opacity="0.014" fill-rule="evenodd" clip-rule="evenodd" d="M217.5 318.5C220.495 318.294 223.162 318.96 225.5 320.5C222.572 320.435 219.905 319.768 217.5 318.5Z" fill="#D7D7D7"/>
<path opacity="0.01" fill-rule="evenodd" clip-rule="evenodd" d="M362.5 317.5C362.573 319.027 361.906 320.027 360.5 320.5C360.427 318.973 361.094 317.973 362.5 317.5Z" fill="#E3E3E3"/>
<path opacity="0.663" fill-rule="evenodd" clip-rule="evenodd" d="M264.5 318.5C262.22 320.223 259.553 320.889 256.5 320.5C258.961 319.469 261.627 318.802 264.5 318.5Z" fill="#B3B3B3"/>
<path opacity="0.224" fill-rule="evenodd" clip-rule="evenodd" d="M349.5 317.5C349.573 319.027 348.906 320.027 347.5 320.5C347.427 318.973 348.094 317.973 349.5 317.5Z" fill="#CDCDCD"/>
<path opacity="0.012" fill-rule="evenodd" clip-rule="evenodd" d="M288.5 319.5C288.027 320.906 287.027 321.573 285.5 321.5C285.973 320.094 286.973 319.427 288.5 319.5Z" fill="#E7E7E7"/>
<path opacity="0.282" fill-rule="evenodd" clip-rule="evenodd" d="M225.5 320.5C235.838 321.755 246.171 321.755 256.5 320.5C251.755 321.999 246.755 322.666 241.5 322.5C235.923 322.632 230.59 321.965 225.5 320.5Z" fill="#B1B1B1"/>
<path opacity="0.384" fill-rule="evenodd" clip-rule="evenodd" d="M347.5 320.5C347.262 322.404 346.262 323.738 344.5 324.5C344.738 322.596 345.738 321.262 347.5 320.5Z" fill="#BCBCBC"/>
<path opacity="0.016" fill-rule="evenodd" clip-rule="evenodd" d="M359.5 321.5C359.573 323.027 358.906 324.027 357.5 324.5C357.427 322.973 358.094 321.973 359.5 321.5Z" fill="#D6D6D6"/>
<path opacity="0.478" fill-rule="evenodd" clip-rule="evenodd" d="M344.5 324.5C343.581 327.089 341.914 329.089 339.5 330.5C340.419 327.911 342.086 325.911 344.5 324.5Z" fill="#B1B1B1"/>
<path opacity="0.639" fill-rule="evenodd" clip-rule="evenodd" d="M212.5 327.5C215.228 327.171 217.562 327.837 219.5 329.5C216.848 329.59 214.515 328.924 212.5 327.5Z" fill="#7A7A7A"/>
<path opacity="0.01" fill-rule="evenodd" clip-rule="evenodd" d="M354.5 328.5C354.573 330.027 353.906 331.027 352.5 331.5C352.427 329.973 353.094 328.973 354.5 328.5Z" fill="#D1D1D1"/>
<path opacity="0.762" fill-rule="evenodd" clip-rule="evenodd" d="M170.5 333.5C170.5 333.833 170.5 334.167 170.5 334.5C160.448 334.216 150.448 334.55 140.5 335.5C141.058 334.21 142.058 333.377 143.5 333C152.676 332.176 161.676 332.343 170.5 333.5Z" fill="#808080"/>
<path opacity="0.02" fill-rule="evenodd" clip-rule="evenodd" d="M170.5 334.5C170.5 334.167 170.5 333.833 170.5 333.5C172.5 333.5 173.5 334.5 173.5 336.5C172.5 335.833 171.5 335.167 170.5 334.5Z" fill="#CCCCCC"/>
<path opacity="0.996" fill-rule="evenodd" clip-rule="evenodd" d="M170.5 334.5C171.5 335.167 172.5 335.833 173.5 336.5C174.819 338.605 174.486 340.605 172.5 342.5C167.701 343.117 163.034 343.784 158.5 344.5C158.414 345.496 158.748 346.329 159.5 347C158.833 347.667 158.167 348.333 157.5 349C158.82 351.215 158.153 352.715 155.5 353.5C154.378 352.37 153.044 351.703 151.5 351.5C150.761 351.369 150.094 351.536 149.5 352C150.907 356.536 150.74 361.036 149 365.5C146.095 369.327 143.095 369.327 140 365.5C139.175 355.325 139.342 345.325 140.5 335.5C150.448 334.55 160.448 334.216 170.5 334.5Z" fill="#2C2C2C"/>
<path opacity="0.757" fill-rule="evenodd" clip-rule="evenodd" d="M337.5 332.5C336.167 335.833 333.833 338.167 330.5 339.5C332.5 336.833 334.833 334.5 337.5 332.5Z" fill="#717171"/>
<path opacity="0.989" fill-rule="evenodd" clip-rule="evenodd" d="M347.5 337.5C345.5 340.167 343.167 342.5 340.5 344.5C338.923 342.198 339.589 340.698 342.5 340C341.131 337.761 341.631 335.927 344 334.5C344.419 338.852 345.086 339.185 346 335.5C346.278 336.416 346.778 337.082 347.5 337.5Z" fill="#4B4B4B"/>
<path opacity="0.01" fill-rule="evenodd" clip-rule="evenodd" d="M352.5 331.5C351.581 334.089 349.914 336.089 347.5 337.5C348.419 334.911 350.086 332.911 352.5 331.5Z" fill="#F1F1F1"/>
<path opacity="0.678" fill-rule="evenodd" clip-rule="evenodd" d="M330.5 339.5C329.089 341.914 327.089 343.581 324.5 344.5C325.911 342.086 327.911 340.419 330.5 339.5Z" fill="#9A9A9A"/>
<path opacity="0.431" fill-rule="evenodd" clip-rule="evenodd" d="M324.5 344.5C323.738 346.262 322.404 347.262 320.5 347.5C321.262 345.738 322.596 344.738 324.5 344.5Z" fill="#B7B7B7"/>
<path opacity="0.01" fill-rule="evenodd" clip-rule="evenodd" d="M340.5 344.5C340.027 345.906 339.027 346.573 337.5 346.5C337.973 345.094 338.973 344.427 340.5 344.5Z" fill="#D9D9D9"/>
<path opacity="0.431" fill-rule="evenodd" clip-rule="evenodd" d="M320.5 347.5C319.738 349.262 318.404 350.262 316.5 350.5C317.262 348.738 318.596 347.738 320.5 347.5Z" fill="#B3B3B3"/>
<path opacity="0.012" fill-rule="evenodd" clip-rule="evenodd" d="M337.5 346.5C337.167 348.833 335.833 350.167 333.5 350.5C334.5 348.833 335.833 347.5 337.5 346.5Z" fill="#D5D5D5"/>
<path opacity="0.129" fill-rule="evenodd" clip-rule="evenodd" d="M316.5 350.5C315.341 352.25 313.674 353.25 311.5 353.5C312.659 351.75 314.326 350.75 316.5 350.5Z" fill="#D3D3D3"/>
<path opacity="0.01" fill-rule="evenodd" clip-rule="evenodd" d="M331.5 352.5C331.027 353.906 330.027 354.573 328.5 354.5C328.973 353.094 329.973 352.427 331.5 352.5Z" fill="#EEEEEE"/>
<path opacity="0.4" fill-rule="evenodd" clip-rule="evenodd" d="M309.5 354.5C309.027 355.906 308.027 356.573 306.5 356.5C306.973 355.094 307.973 354.427 309.5 354.5Z" fill="#C9C9C9"/>
<path opacity="0.989" fill-rule="evenodd" clip-rule="evenodd" d="M158.5 344.5C163.996 348.416 169.663 352.082 175.5 355.5C176.035 357.446 177.368 358.446 179.5 358.5C182.744 359.463 185.744 360.796 188.5 362.5C189.93 364.122 191.43 365.788 193 367.5C193.417 366.244 194.25 365.577 195.5 365.5C198.968 366.101 202.301 367.101 205.5 368.5C208.763 370.568 212.43 371.568 216.5 371.5C219.279 371.279 221.946 371.612 224.5 372.5C235.506 375.079 246.506 375.079 257.5 372.5C260.287 371.523 263.287 371.19 266.5 371.5C269.781 371.58 272.781 370.913 275.5 369.5C277.898 369.741 279.898 369.074 281.5 367.5C283.898 367.741 285.898 367.074 287.5 365.5C290.491 365.834 292.824 364.834 294.5 362.5C296.703 362.065 298.703 362.065 300.5 362.5C303.187 364.198 305.854 365.865 308.5 367.5C285.141 380.239 260.141 385.573 233.5 383.5C228.056 382.116 222.389 381.45 216.5 381.5C214.379 381.675 212.379 381.341 210.5 380.5C208.485 379.076 206.152 378.41 203.5 378.5C183.842 373.673 166.508 364.673 151.5 351.5C153.044 351.703 154.378 352.37 155.5 353.5C158.153 352.715 158.82 351.215 157.5 349C158.167 348.333 158.833 347.667 159.5 347C158.748 346.329 158.414 345.496 158.5 344.5Z" fill="#2F2F2F"/>
<path opacity="0.776" fill-rule="evenodd" clip-rule="evenodd" d="M175.5 355.5C177.23 356.026 178.564 357.026 179.5 358.5C177.368 358.446 176.035 357.446 175.5 355.5Z" fill="#9B9B9B"/>
<path opacity="0.01" fill-rule="evenodd" clip-rule="evenodd" d="M327.5 355.5C326.738 357.262 325.404 358.262 323.5 358.5C324.262 356.738 325.596 355.738 327.5 355.5Z" fill="#E1E1E1"/>
<path opacity="0.529" fill-rule="evenodd" clip-rule="evenodd" d="M306.5 356.5C306.027 357.906 305.027 358.573 303.5 358.5C303.973 357.094 304.973 356.427 306.5 356.5Z" fill="#B5B5B5"/>
<path opacity="0.01" fill-rule="evenodd" clip-rule="evenodd" d="M323.5 358.5C323.027 359.906 322.027 360.573 320.5 360.5C320.973 359.094 321.973 358.427 323.5 358.5Z" fill="#E9E9E9"/>
<path fill-rule="evenodd" clip-rule="evenodd" d="M301.5 359.5C300.89 360.391 300.557 361.391 300.5 362.5C298.703 362.065 296.703 362.065 294.5 362.5C296.509 360.935 298.843 359.935 301.5 359.5Z" fill="#757575"/>
<path opacity="0.01" fill-rule="evenodd" clip-rule="evenodd" d="M318.5 361.5C318.027 362.906 317.027 363.573 315.5 363.5C315.973 362.094 316.973 361.427 318.5 361.5Z" fill="#E5E5E5"/>
<path opacity="0.945" fill-rule="evenodd" clip-rule="evenodd" d="M188.5 362.5C191.241 362.707 193.574 363.707 195.5 365.5C194.25 365.577 193.417 366.244 193 367.5C191.43 365.788 189.93 364.122 188.5 362.5Z" fill="#707070"/>
<path opacity="0.902" fill-rule="evenodd" clip-rule="evenodd" d="M294.5 362.5C292.824 364.834 290.491 365.834 287.5 365.5C289.509 363.935 291.843 362.935 294.5 362.5Z" fill="#727272"/>
<path opacity="0.01" fill-rule="evenodd" clip-rule="evenodd" d="M315.5 363.5C315.027 364.906 314.027 365.573 312.5 365.5C312.973 364.094 313.973 363.427 315.5 363.5Z" fill="#F0F0F0"/>
<path opacity="0.71" fill-rule="evenodd" clip-rule="evenodd" d="M287.5 365.5C285.898 367.074 283.898 367.741 281.5 367.5C283.214 366.262 285.214 365.595 287.5 365.5Z" fill="#9B9B9B"/>
<path opacity="0.737" fill-rule="evenodd" clip-rule="evenodd" d="M281.5 367.5C279.898 369.074 277.898 369.741 275.5 369.5C277.214 368.262 279.214 367.595 281.5 367.5Z" fill="#909090"/>
<path opacity="0.455" fill-rule="evenodd" clip-rule="evenodd" d="M205.5 368.5C209.397 369.055 213.063 370.055 216.5 371.5C212.43 371.568 208.763 370.568 205.5 368.5Z" fill="#B0B0B0"/>
<path opacity="0.663" fill-rule="evenodd" clip-rule="evenodd" d="M275.5 369.5C272.781 370.913 269.781 371.58 266.5 371.5C269.219 370.087 272.219 369.42 275.5 369.5Z" fill="#9B9B9B"/>
<path opacity="0.623" fill-rule="evenodd" clip-rule="evenodd" d="M224.5 372.5C235.5 372.5 246.5 372.5 257.5 372.5C246.506 375.079 235.506 375.079 224.5 372.5Z" fill="#909090"/>
<path opacity="0.525" fill-rule="evenodd" clip-rule="evenodd" d="M203.5 378.5C206.152 378.41 208.485 379.076 210.5 380.5C207.848 380.59 205.515 379.924 203.5 378.5Z" fill="#797979"/>
<path opacity="0.569" fill-rule="evenodd" clip-rule="evenodd" d="M216.5 381.5C222.389 381.45 228.056 382.116 233.5 383.5C227.611 383.55 221.944 382.884 216.5 381.5Z" fill="#6F6F6F"/>
</svg>
