<svg width="683" height="683" viewBox="0 0 683 683" fill="none" xmlns="http://www.w3.org/2000/svg">
<g clip-path="url(#clip0_490_502)">
<path d="M189.067 1.33314C173.867 3.86647 158.534 10.1331 145.334 19.0665C137.334 24.3998 57.8671 103.333 47.8671 115.6C38.6671 127.066 31.7337 140.666 27.7337 155.333L24.6671 166L24.2671 410C24.0004 582.533 24.2671 656 25.3337 660.8C27.0671 669.067 33.2004 676.8 40.5337 680.133C45.7337 682.533 55.3337 682.667 285.334 682.667H524.667L536 676.533C587.6 648.933 631.2 605.2 647.6 564.666C657.467 540.133 658.667 529.333 658.667 463.6C658.667 410.266 658.4 407.6 652.267 402.266C650.8 400.933 643.6 398.133 636.267 396C602.4 386.133 568.134 367.6 540.4 344L530.667 335.866V180.266C530.667 75.8665 530.134 23.0665 529.2 19.5998C527.467 13.0665 520.8 5.5998 514 2.53314C508.934 0.133135 500.8 -0.000198364 352 0.133135C265.867 0.266468 192.534 0.799802 189.067 1.33314ZM509.334 22.5331C510.267 24.2665 510.667 75.9998 510.667 180.533V335.866L500.4 344.8C472.4 368.666 436.934 387.2 398.4 397.866C393.2 399.333 389.867 401.333 387.334 404.133L383.867 408.4L384.267 473.2L384.8 538L388.267 549.333C400.134 587.466 425.067 620.133 465.734 650.8L481.467 662.667H265.2C65.7337 662.667 48.6671 662.533 46.4004 660.4C44.1337 658.4 44.0004 649.067 44.0004 418.133V178L47.2004 171.333C50.9337 163.466 56.0004 158.4 63.3338 155.2C67.7338 153.2 74.4004 152.666 104 152C138.934 151.333 139.467 151.2 146.667 147.733C156.667 142.8 166.134 133.2 171.2 122.666L175.334 114L176 77.9998L176.667 41.9998L180.4 35.7331C184.134 29.3331 190.134 23.8665 196 21.4665C198.134 20.6665 255.6 20.1331 353.6 20.1331C504.8 19.9998 508 19.9998 509.334 22.5331ZM158.4 37.5998C157.734 39.9998 156.667 57.9998 156.134 77.5998L155.334 113.066L151.334 118.8C149.067 122 144.267 126.4 140.8 128.666L134.267 132.666L98.8004 133.466C79.3338 133.866 61.8671 134.8 60.1338 135.333C57.2004 136.266 57.0671 136.266 58.6671 133.2C62.1338 126.533 156.134 33.3331 159.467 33.3331C159.6 33.3331 159.2 35.3331 158.4 37.5998ZM530.934 361.6C544.667 373.066 569.2 388.933 587.067 397.733C601.467 404.933 631.334 416 636.4 416C638.534 416 638.667 419.466 638.667 468.933C638.667 523.466 638 532.8 633.2 548C629.6 559.066 619.467 578.533 612 588.666C594 613.067 560 641.6 528.667 658.533L520.667 662.933L510.667 657.333C466.4 632.4 430.934 597.866 414.667 563.733C403.867 541.2 403.6 538.8 402.934 473.6C402.534 420.266 402.667 416 404.8 416C406 416 414.4 413.466 423.6 410.533C452.667 400.8 484.667 382.933 510 362.133C515.867 357.333 520.8 353.333 520.934 353.333C520.934 353.333 525.467 357.066 530.934 361.6Z" fill="#7F7F7F"/>
<path d="M110.134 174.8L106.667 177.466V222.666C106.667 267.466 106.667 267.866 109.6 270.666C113.334 274.133 117.334 274.133 121.867 270.533C125.334 267.866 125.334 267.6 125.334 250.266V232.666L144 252.266C154.4 263.066 163.867 272.266 165.334 272.666C169.067 273.866 175.867 269.866 176.8 265.866C178 261.066 176.667 258.933 164.4 245.466C158.267 238.933 153.334 233.333 153.334 232.933C153.334 232.666 155.734 232 158.534 231.466C161.467 231.066 166.4 228.666 169.467 226.4C184.934 214.533 185.467 192.4 170.8 179.733C163.2 173.333 157.067 172 133.6 172C115.467 172 113.334 172.266 110.134 174.8ZM156.667 192.8C159.067 193.733 162.667 200.133 162.667 203.333C162.667 204.533 160.934 207.333 158.8 209.466C154.934 213.333 154.667 213.333 140.134 213.333H125.334V202.666V192H139.867C147.867 192 155.467 192.4 156.667 192.8Z" fill="#7F7F7F"/>
<path d="M209.6 173.333C208 174 206 176.266 205.2 178.133C204.4 180.4 204 197.733 204.267 225.066L204.667 268.266L207.867 270.8C210.667 273.066 213.334 273.333 237.6 273.333C264 273.333 264.134 273.333 267.334 270C272.534 264.933 271.6 258.533 265.2 255.333C262.4 253.866 256.534 253.333 242.667 253.333H224V242.666V232H235.734C246.4 232 247.867 231.733 250.4 228.933C254.134 225.066 254.134 221.333 250.534 216.8C248 213.466 247.2 213.333 235.867 213.333H224V202.8V192.133L244.8 191.733C264.8 191.333 265.734 191.2 268.134 188.133C271.6 183.866 271.334 179.2 267.334 175.333C264.134 172 264 172 238.4 172.133C224.267 172.133 211.334 172.666 209.6 173.333Z" fill="#7F7F7F"/>
<path d="M342.534 174.533C339.467 177.066 339.334 177.866 338.667 201.866L338.001 226.533L325.334 204.4C318.401 192.266 311.601 180.933 310.267 179.2C307.067 175.066 299.867 174.8 296.001 178.666C293.467 181.2 293.334 183.066 293.334 224.533V267.866L296.801 270.533C298.801 272.133 301.334 273.333 302.667 273.333C304.001 273.333 306.534 272.133 308.534 270.533L312.001 267.866V244.933C312.001 229.066 312.401 222.533 313.334 223.466C314.134 224.266 320.667 235.066 327.867 247.466C341.467 270.933 344.801 274.4 351.067 272.8C358.267 271.066 358.667 268 358.667 222.8C358.667 179.066 358.267 176.133 352.401 173.466C348.001 171.466 346.134 171.6 342.534 174.533Z" fill="#7F7F7F"/>
<path d="M384.8 174.8C380 178.533 380 185.466 384.8 189.2C387.6 191.333 390.267 192 396.8 192H405.334L405.6 230.133L406 268.4L409.6 271.066C413.467 274 418.267 273.466 421.867 269.866C423.734 268.133 424 262.533 424 229.866V192H432C441.467 192 445.867 190.266 447.867 185.6C450 181.2 447.734 175.6 443.2 173.466C441.067 172.533 430.4 172 414.134 172C390.134 172 388.134 172.133 384.8 174.8Z" fill="#7F7F7F"/>
<path d="M112.667 336.666C108.667 340.533 108.401 345.2 111.867 349.466L114.401 352.666L276.401 353.066L438.267 353.333L441.867 350.533C446.667 346.8 446.667 339.866 441.867 336.133C438.267 333.333 438.134 333.333 277.067 333.333H115.867L112.667 336.666Z" fill="#7F7F7F"/>
<path d="M112.667 415.333C110.801 417.067 109.334 420.133 109.334 422C109.334 423.867 110.801 426.933 112.667 428.667L115.867 432H218.001H320.134L323.334 428.667C325.201 426.933 326.667 423.867 326.667 422C326.667 420.133 325.201 417.067 323.334 415.333L320.134 412H218.001H115.867L112.667 415.333Z" fill="#7F7F7F"/>
<path d="M112.667 494C110.801 495.733 109.334 498.8 109.334 500.667C109.334 502.533 110.801 505.6 112.667 507.333L115.867 510.667H165.334H214.801L218.001 507.333C219.867 505.6 221.334 502.533 221.334 500.667C221.334 498.8 219.867 495.733 218.001 494L214.801 490.667H165.334H115.867L112.667 494Z" fill="#7F7F7F"/>
<path d="M584.001 454.266C582.934 454.666 563.201 473.6 540.401 496.4L498.667 538L478.801 518.133C461.334 500.666 458.267 498.266 454.534 498.266C451.734 498.266 449.467 499.2 447.734 501.2C442.401 507.866 443.601 509.733 470.401 536.4C489.067 554.933 496.267 561.333 498.667 561.333C501.201 561.333 513.201 550.133 548.934 514.4C587.201 476.133 596.001 466.666 596.001 463.866C596.001 457.733 589.334 452.4 584.001 454.266Z" fill="#7F7F7F"/>
</g>
<defs>
<clipPath id="clip0_490_502">
<rect width="682.667" height="682.667" fill="white"/>
</clipPath>
</defs>
</svg>
