<svg width="683" height="683" viewBox="0 0 683 683" fill="none" xmlns="http://www.w3.org/2000/svg">
<g clip-path="url(#clip0_489_457)">
<path d="M334 3.2C329.6 7.6 329.067 12.2667 329.6 38.6667L330 61.6L333.734 64.8C335.867 66.5333 339.2 68 341.334 68C343.467 68 346.8 66.5333 348.934 64.8L352.667 61.6L353.067 38.6667C353.334 26 353.2 13.6 352.667 11.0667C351.467 4.8 346.534 -3.54648e-06 341.334 -3.54648e-06C338.8 -3.54648e-06 336 1.2 334 3.2Z" fill="#7F7F7F"/>
<path d="M205.2 36.6669C201.333 38.8002 198.267 45.4669 199.6 49.0669C201.733 55.3335 224.933 93.8669 227.6 95.6002C231.6 98.2669 239.2 96.8002 242 92.9335C245.733 87.6002 244.4 82.9335 233.067 62.8002C226.933 52.1335 220.533 41.7335 218.667 39.7335C214.533 35.2002 209.733 34.1335 205.2 36.6669Z" fill="#7F7F7F"/>
<path d="M464.8 38.9335C458.667 45.3335 438.667 81.3335 438.667 86.1335C438.667 88.2669 439.6 91.3335 440.667 92.9335C443.467 96.8002 451.067 98.2669 455.067 95.6002C457.734 93.8669 480.934 55.3335 483.2 48.9335C484.4 45.2002 480.534 37.4669 476.667 36.0002C471.2 33.8669 469.334 34.4002 464.8 38.9335Z" fill="#7F7F7F"/>
<path d="M326.667 91.4667C289.734 96.2668 265.467 105.067 237.2 124C225.334 132 199.2 158.533 190.667 171.2C178 190.133 167.867 214.667 162.4 239.333C161.334 244.533 160.667 256.533 160.667 273.333C160.8 296.933 161.067 300.667 164.267 313.333C174 351.867 187.734 376 216.4 404.533C225.867 413.867 234.534 423.867 235.734 426.533C237.2 430 238.134 437.6 238.667 453.333C239.334 472.267 239.867 476.133 242.4 480.8C245.734 487.333 252 493.867 257.467 496.8C260.934 498.533 261.334 499.467 261.334 505.333C261.334 514.8 263.734 524.533 267.334 530L270.534 534.667L267.334 539.333C263.467 545.067 260.934 556 262.134 562.533C262.534 565.2 264.667 570.4 266.667 574C270.267 580.667 270.4 580.8 267.867 583.867C266.4 585.6 264.4 590.267 263.2 594.4C258 612.4 269.334 631.467 288 636C299.334 638.667 306.667 634.8 306.667 626C306.667 620.533 301.867 614.667 297.334 614.667C292.534 614.667 287.067 610.933 285.6 606.667C283.867 602 284.534 599.2 288.4 595.067C291.067 592.133 291.867 592 316 592C341.867 592 348.4 590.933 350.667 586.667C353.067 582.133 352.267 575.333 348.934 572.267C346 569.467 344.667 569.333 321.067 569.333C306.134 569.333 294.667 568.8 292 567.867C286.8 566 283.334 559.2 285.2 554.4C287.867 547.2 289.334 546.933 318.267 546.4C344.534 546 345.2 546 348.534 542.8C353.067 538.533 353.334 531.067 349.067 526.933C346.134 524.4 344.267 524.133 319.334 523.733C289.6 523.333 287.6 522.8 285.2 514.667C284.4 512.133 284 507.867 284.267 505.333L284.667 500.667L315.334 500.267C344.534 500 346 499.867 348.934 497.067C353.334 492.933 353.067 485.467 348.534 481.2L345.067 478L306.667 477.6L268.267 477.2L265.2 473.867C262.134 470.667 262 469.333 261.334 448.267C260.534 426.8 260.4 425.733 256.267 416.933C252.8 409.467 249.2 404.933 234.934 390.933C215.867 372.133 208.134 362 199.467 344.4C186.934 319.067 182 295.867 183.067 266.667C184.134 236.8 191.067 214.133 206.934 188.267C215.734 173.867 237.867 151.2 252.534 141.333C271.334 128.8 294.667 119.6 316.4 116C328.8 114 356.8 114.4 369.2 116.667C419.067 126.133 461.334 158.4 484.4 204.667C501.867 239.733 504.934 284.267 492.534 322.267C484 348.667 472.267 366.533 448.4 390.267C433.6 404.933 429.867 409.333 426.4 416.933C422.267 425.733 422.134 426.8 421.334 448.267C420.667 469.467 420.534 470.667 417.467 473.867C414.267 477.333 413.867 477.333 395.067 477.333C373.334 477.333 367.6 478.8 365.2 484.933C363.734 489.067 364.267 492.667 367.2 496.667C368.8 498.933 371.067 499.467 383.6 500L398 500.667L398.4 505.333C399.067 511.733 396.667 518.933 393.2 521.2C391.6 522.133 385.467 523.333 379.6 523.867C368.534 524.8 366.134 526.267 364.534 532.667C362.4 541.067 370.267 546.667 383.734 546.667C390.134 546.667 392 547.2 394.267 549.733C398.267 554.133 398.8 556.933 396.8 561.867C394.534 567.2 389.467 569.333 378.667 569.333C372.934 569.333 370.534 570 368.267 572C364.4 575.6 363.334 580.4 365.6 584.8C368 590.133 372.534 592 382.8 592C390.134 592 392 592.533 394.267 594.933C398.134 599.2 398.8 602 397.067 606.667C394.534 614 391.467 614.667 356.934 614.667H325.734L322.134 618.133C317.734 622.667 317.6 628 321.867 632.933L325.067 636.667L349.2 637.333L373.467 638L369.467 644.267C357.867 662.533 334.134 664.667 316.267 649.2C308 642 296 646 296 656C296 665.6 315.2 678.933 333.2 681.733C361.067 686 388.667 667.867 395.867 640.4C397.067 636.267 398.267 634.667 401.2 633.6C410.4 630.4 418.534 619.2 420.667 607.067C421.734 600.533 418.8 589.2 414.8 584.133C412.267 580.8 412.267 580.8 416 574.133C418 570.4 420.134 565.2 420.534 562.533C421.734 556 419.2 545.067 415.334 539.333L412.134 534.667L415.334 530C418.934 524.533 421.334 514.8 421.334 505.333C421.334 499.467 421.734 498.533 425.2 496.8C430.667 493.867 436.934 487.333 440.267 480.8C442.8 476.133 443.334 472.267 444 453.333C444.534 437.467 445.334 430 446.934 426.4C448.134 423.733 456.667 414 466.267 404.4C498.267 372.667 513.2 344.533 520.8 302C523.067 289.067 523.334 261.6 521.334 248C509.467 170.133 448.267 107.333 371.334 94.0001C358.8 91.8667 334.667 90.5334 326.667 91.4667Z" fill="#7F7F7F"/>
<path d="M109.734 132C103.467 134.533 101.867 144.8 107.067 149.733C112.667 155.333 150.134 176 154.534 176C163.734 176 168.534 165.067 162.4 158.133C158.667 154 120.934 132 116.134 131.333C114.267 130.933 111.334 131.333 109.734 132Z" fill="#7F7F7F"/>
<path d="M564 131.6C557.734 134.133 522.8 155.333 520.134 158.267C514.134 165.067 519.2 176 528.267 176C532.534 176 570.267 155.2 575.734 149.733C578.667 146.8 579.6 141.2 577.867 136.667C576.267 132.667 568.667 129.867 564 131.6Z" fill="#7F7F7F"/>
<path d="M267.733 231.2C258.4 235.067 252.667 239.733 247.2 247.867C241.467 256.4 239.467 263.067 239.467 274.267C239.6 291.6 249.733 306.667 266.533 314.4C272.933 317.333 276.267 318 290.267 318.4L306.533 318.933L306.933 383.333L307.333 447.733L310.533 451.2C314.533 455.467 320.933 455.733 325.867 451.867L329.333 449.2V383.867V318.667H341.333H353.333V383.867V449.2L356.8 451.867C361.733 455.733 368.133 455.467 372.133 451.2L375.333 447.733L375.733 383.333L376.133 318.933L392.4 318.4C406.4 318 409.733 317.333 416.133 314.4C426.533 309.6 433.867 302.533 438.933 292.4C442.4 285.333 443.067 282.267 443.2 274.267C443.2 263.067 441.2 256.4 435.467 247.733C420.4 225.2 388.4 221.2 368.133 239.467C364.267 242.933 359.867 248.667 357.733 253.067C354.4 259.867 353.867 262.4 353.333 278L352.667 295.333H341.333H330L329.333 278C328.8 262.4 328.267 259.867 324.933 253.067C314.667 232.133 289.2 222.4 267.733 231.2ZM296.933 254.133C304.933 260.133 306 262.933 306.4 280.133L306.933 296H293.733C283.867 296 279.333 295.333 275.2 293.467C258.267 285.733 257.467 263.467 273.867 253.2C279.333 249.733 291.733 250.267 296.933 254.133ZM408.8 253.2C425.2 263.2 424.4 285.733 407.467 293.467C403.333 295.333 398.8 296 389.067 296H376V282.133C376 267.333 377.067 262.533 381.733 257.467C388.133 250.533 401.067 248.533 408.8 253.2Z" fill="#7F7F7F"/>
<path d="M75.2002 263.2C69.8668 265.6 67.3335 271.467 69.3335 276.667C72.0002 283.6 73.2002 283.867 102.4 284C129.334 284 129.467 284 132.667 280.667C138.534 274.933 136.534 265.733 128.8 262.667C123.334 260.667 80.2668 261.067 75.2002 263.2Z" fill="#7F7F7F"/>
<path d="M553.467 262.8C546.134 265.733 544.267 275.067 550 280.667C553.2 284 553.334 284 580.267 284C609.734 283.867 610.8 283.6 613.467 276.267C615.334 270.8 612.267 264.8 606.534 262.8C601.334 260.933 558 260.933 553.467 262.8Z" fill="#7F7F7F"/>
<path d="M148.667 371.467C135.734 378.267 111.334 392.8 108 395.6C100 402.267 104.4 414.667 114.534 414.667C119.334 414.667 158.8 392.8 163.067 387.733C166.267 384 165.867 378.133 162.4 374.133C158.4 369.733 153.6 368.8 148.667 371.467Z" fill="#7F7F7F"/>
<path d="M524.533 370.667C517.867 373.334 515.2 382.534 519.733 387.734C520.933 389.334 531.467 396 542.933 402.667C565.867 415.867 570.533 417.2 575.733 411.6C579.733 407.334 579.6 400 575.6 396.267C571.733 392.667 534.133 370.934 530.267 370C528.667 369.734 526 370 524.533 370.667Z" fill="#7F7F7F"/>
</g>
<defs>
<clipPath id="clip0_489_457">
<rect width="682.667" height="682.667" fill="white"/>
</clipPath>
</defs>
</svg>
