<svg width="1600" height="1600" viewBox="0 0 1600 1600" fill="none" xmlns="http://www.w3.org/2000/svg">
<g clip-path="url(#clip0_505_1054)">
<path fill-rule="evenodd" clip-rule="evenodd" d="M-0.5 -0.5C532.833 -0.5 1066.17 -0.5 1599.5 -0.5C1599.5 532.833 1599.5 1066.17 1599.5 1599.5C1066.17 1599.5 532.833 1599.5 -0.5 1599.5C-0.5 1066.17 -0.5 532.833 -0.5 -0.5Z" fill="#FEFEFE"/>
<path fill-rule="evenodd" clip-rule="evenodd" d="M1089.5 404.5C1089.17 404.5 1088.83 404.5 1088.5 404.5C925.489 404.178 762.489 404.511 599.5 405.5C601.292 404.691 603.292 404.191 605.5 404C767.001 403.167 928.334 403.334 1089.5 404.5Z" fill="#8C8D8F"/>
<path fill-rule="evenodd" clip-rule="evenodd" d="M437.5 404.5C437.5 476.833 437.5 549.167 437.5 621.5C461.5 621.5 485.5 621.5 509.5 621.5C509.5 657.5 509.5 693.5 509.5 729.5C485.5 729.5 461.5 729.5 437.5 729.5C437.5 801.833 437.5 874.167 437.5 946.5C401.5 946.5 365.5 946.5 329.5 946.5C329.5 765.833 329.5 585.167 329.5 404.5C365.5 404.5 401.5 404.5 437.5 404.5Z" fill="#BEC0BF"/>
<path fill-rule="evenodd" clip-rule="evenodd" d="M1088.5 404.5C1088.5 440.167 1088.5 475.833 1088.5 511.5C931.666 511.167 774.999 511.5 618.5 512.5C618.5 548.833 618.5 585.167 618.5 621.5C618.167 694.002 618.501 766.335 619.5 838.5C739.5 838.5 859.5 838.5 979.5 838.5C980.498 802.337 980.832 766.004 980.5 729.5C896.167 729.5 811.833 729.5 727.5 729.5C727.5 693.5 727.5 657.5 727.5 621.5C847.833 621.5 968.167 621.5 1088.5 621.5C1088.5 729.833 1088.5 838.167 1088.5 946.5C930.167 946.5 771.833 946.5 613.5 946.5C577.95 944.643 549.783 929.31 529 900.5C517.917 883.847 511.583 865.513 510 845.5C509.5 806.835 509.333 768.168 509.5 729.5C509.5 693.5 509.5 657.5 509.5 621.5C509.333 581.165 509.5 540.832 510 500.5C519.11 449.225 548.944 417.559 599.5 405.5C762.489 404.511 925.489 404.178 1088.5 404.5Z" fill="#0F1316"/>
<path fill-rule="evenodd" clip-rule="evenodd" d="M1161.5 404.5C1197.5 404.5 1233.5 404.5 1269.5 404.5C1269.5 585.167 1269.5 765.833 1269.5 946.5C1233.5 946.5 1197.5 946.5 1161.5 946.5C1161.5 874.167 1161.5 801.833 1161.5 729.5C1137.5 729.5 1113.5 729.5 1089.5 729.5C1089.5 693.5 1089.5 657.5 1089.5 621.5C1113.5 621.5 1137.5 621.5 1161.5 621.5C1161.5 549.167 1161.5 476.833 1161.5 404.5Z" fill="#BEC0BF"/>
<path fill-rule="evenodd" clip-rule="evenodd" d="M437.5 404.5C401.5 404.5 365.5 404.5 329.5 404.5C329.5 585.167 329.5 765.833 329.5 946.5C365.5 946.5 401.5 946.5 437.5 946.5C401.337 947.498 365.004 947.832 328.5 947.5C328.5 766.167 328.5 584.833 328.5 403.5C365.004 403.168 401.337 403.502 437.5 404.5Z" fill="#D6D8D7"/>
<path fill-rule="evenodd" clip-rule="evenodd" d="M1161.5 404.5C1197.66 403.502 1234 403.168 1270.5 403.5C1270.5 584.833 1270.5 766.167 1270.5 947.5C1234 947.832 1197.66 947.498 1161.5 946.5C1197.5 946.5 1233.5 946.5 1269.5 946.5C1269.5 765.833 1269.5 585.167 1269.5 404.5C1233.5 404.5 1197.5 404.5 1161.5 404.5Z" fill="#D6D8D7"/>
<path fill-rule="evenodd" clip-rule="evenodd" d="M1088.5 404.5C1088.83 404.5 1089.17 404.5 1089.5 404.5C1089.5 440.5 1089.5 476.5 1089.5 512.5C932.5 512.5 775.5 512.5 618.5 512.5C774.999 511.5 931.666 511.167 1088.5 511.5C1088.5 475.833 1088.5 440.167 1088.5 404.5Z" fill="#262627"/>
<path fill-rule="evenodd" clip-rule="evenodd" d="M618.5 512.5C775.5 512.5 932.5 512.5 1089.5 512.5C933.001 513.5 776.334 513.833 619.5 513.5C619.5 549.5 619.5 585.5 619.5 621.5C619.167 621.5 618.833 621.5 618.5 621.5C618.5 585.167 618.5 548.833 618.5 512.5Z" fill="#C3C3C3"/>
<path fill-rule="evenodd" clip-rule="evenodd" d="M618.5 621.5C618.833 621.5 619.167 621.5 619.5 621.5C655.5 621.5 691.5 621.5 727.5 621.5C727.5 657.5 727.5 693.5 727.5 729.5C691.5 729.5 655.5 729.5 619.5 729.5C619.5 765.833 619.5 802.167 619.5 838.5C618.501 766.335 618.167 694.002 618.5 621.5Z" fill="#BDBFBE"/>
<path fill-rule="evenodd" clip-rule="evenodd" d="M727.5 729.5C811.332 730.499 895.332 730.833 979.5 730.5C979.5 766.5 979.5 802.5 979.5 838.5C859.5 838.5 739.5 838.5 619.5 838.5C619.5 802.167 619.5 765.833 619.5 729.5C655.5 729.5 691.5 729.5 727.5 729.5Z" fill="#FEFEFE"/>
<path fill-rule="evenodd" clip-rule="evenodd" d="M727.5 729.5C811.833 729.5 896.167 729.5 980.5 729.5C980.832 766.004 980.498 802.337 979.5 838.5C979.5 802.5 979.5 766.5 979.5 730.5C895.332 730.833 811.332 730.499 727.5 729.5Z" fill="#B5B6B8"/>
<path fill-rule="evenodd" clip-rule="evenodd" d="M1088.5 621.5C1088.83 621.5 1089.17 621.5 1089.5 621.5C1089.5 657.5 1089.5 693.5 1089.5 729.5C1089.5 802.167 1089.5 874.833 1089.5 947.5C930.666 947.833 771.999 947.5 613.5 946.5C771.833 946.5 930.167 946.5 1088.5 946.5C1088.5 838.167 1088.5 729.833 1088.5 621.5Z" fill="#68696B"/>
<path fill-rule="evenodd" clip-rule="evenodd" d="M747.5 1029.5C751.646 1028.35 755.98 1028.19 760.5 1029C761.416 1029.28 762.082 1029.78 762.5 1030.5C757.547 1029.67 752.547 1029.34 747.5 1029.5Z" fill="#4D4E50"/>
<path fill-rule="evenodd" clip-rule="evenodd" d="M1119.5 1029.5C1113.46 1029.36 1107.46 1029.69 1101.5 1030.5C1104.7 1028.97 1108.2 1028.3 1112 1028.5C1114.69 1028.5 1117.19 1028.84 1119.5 1029.5Z" fill="#4C4E50"/>
<path fill-rule="evenodd" clip-rule="evenodd" d="M446.5 1087.5C442.167 1087.5 437.833 1087.5 433.5 1087.5C433.5 1079.83 433.5 1072.17 433.5 1064.5C425.5 1064.5 417.5 1064.5 409.5 1064.5C409.5 1072.17 409.5 1079.83 409.5 1087.5C405.5 1087.5 401.5 1087.5 397.5 1087.5C397.5 1068.5 397.5 1049.5 397.5 1030.5C401.5 1030.5 405.5 1030.5 409.5 1030.5C409.5 1038.17 409.5 1045.83 409.5 1053.5C417.684 1053.83 425.684 1053.49 433.5 1052.5C433.5 1044.83 433.5 1037.17 433.5 1029.5C437.833 1029.5 442.167 1029.5 446.5 1029.5C446.5 1048.83 446.5 1068.17 446.5 1087.5Z" fill="#111417"/>
<path fill-rule="evenodd" clip-rule="evenodd" d="M556.5 1030.5C567.15 1032.49 574.484 1038.49 578.5 1048.5C579.292 1054.13 579.625 1059.8 579.5 1065.5C575.65 1078.44 566.983 1085.77 553.5 1087.5C544.833 1087.5 536.167 1087.5 527.5 1087.5C527.5 1068.5 527.5 1049.5 527.5 1030.5C537.167 1030.5 546.833 1030.5 556.5 1030.5Z" fill="#121518"/>
<path fill-rule="evenodd" clip-rule="evenodd" d="M635.5 1040.5C625.167 1040.5 614.833 1040.5 604.5 1040.5C604.5 1044.5 604.5 1048.5 604.5 1052.5C613.318 1053.49 622.318 1053.83 631.5 1053.5C631.5 1056.83 631.5 1060.17 631.5 1063.5C622.318 1063.17 613.318 1063.51 604.5 1064.5C604.5 1068.5 604.5 1072.5 604.5 1076.5C614.833 1076.5 625.167 1076.5 635.5 1076.5C635.5 1080.17 635.5 1083.83 635.5 1087.5C621.167 1087.5 606.833 1087.5 592.5 1087.5C592.5 1068.5 592.5 1049.5 592.5 1030.5C606.833 1030.5 621.167 1030.5 635.5 1030.5C635.5 1033.83 635.5 1037.17 635.5 1040.5Z" fill="#101316"/>
<path fill-rule="evenodd" clip-rule="evenodd" d="M681.5 1030.5C693.684 1033.84 698.517 1041.84 696 1054.5C693.723 1060.27 689.89 1064.61 684.5 1067.5C689.09 1073.69 693.424 1080.02 697.5 1086.5C693.03 1087.49 688.363 1087.82 683.5 1087.5C679.363 1081.84 675.363 1076.01 671.5 1070C668.183 1069.5 664.85 1069.33 661.5 1069.5C660.51 1075.31 660.177 1081.31 660.5 1087.5C656.5 1087.5 652.5 1087.5 648.5 1087.5C648.5 1068.5 648.5 1049.5 648.5 1030.5C659.5 1030.5 670.5 1030.5 681.5 1030.5Z" fill="#111417"/>
<path fill-rule="evenodd" clip-rule="evenodd" d="M853.5 1029.5C857.5 1029.5 861.5 1029.5 865.5 1029.5C865.5 1048.83 865.5 1068.17 865.5 1087.5C861.5 1087.5 857.5 1087.5 853.5 1087.5C853.5 1079.83 853.5 1072.17 853.5 1064.5C845.5 1064.5 837.5 1064.5 829.5 1064.5C829.5 1072.17 829.5 1079.83 829.5 1087.5C825.5 1087.5 821.5 1087.5 817.5 1087.5C817.5 1068.5 817.5 1049.5 817.5 1030.5C821.167 1030.5 824.833 1030.5 828.5 1030.5C828.175 1038.02 828.508 1045.35 829.5 1052.5C837.316 1053.49 845.316 1053.83 853.5 1053.5C853.5 1045.5 853.5 1037.5 853.5 1029.5Z" fill="#111417"/>
<path fill-rule="evenodd" clip-rule="evenodd" d="M1004.5 1087.5C1000.5 1087.5 996.5 1087.5 992.5 1087.5C992.832 1075.15 992.499 1062.82 991.5 1050.5C990.893 1050.62 990.56 1050.96 990.5 1051.5C985.343 1059.14 980.177 1066.8 975 1074.5C970.304 1066.99 965.47 1059.66 960.5 1052.5C960.217 1051.71 959.717 1051.04 959 1050.5C958.5 1062.83 958.333 1075.16 958.5 1087.5C954.5 1087.5 950.5 1087.5 946.5 1087.5C946.5 1068.17 946.5 1048.83 946.5 1029.5C951.179 1029.33 955.845 1029.5 960.5 1030C965.139 1038.12 970.139 1045.96 975.5 1053.5C980.375 1045.58 985.375 1037.75 990.5 1030C995.155 1029.5 999.821 1029.33 1004.5 1029.5C1004.5 1048.83 1004.5 1068.17 1004.5 1087.5Z" fill="#111417"/>
<path fill-rule="evenodd" clip-rule="evenodd" d="M1048.5 1030.5C1068.03 1035.87 1075.53 1048.53 1071 1068.5C1066.25 1079.8 1057.75 1086.13 1045.5 1087.5C1036.83 1087.5 1028.17 1087.5 1019.5 1087.5C1019.5 1068.5 1019.5 1049.5 1019.5 1030.5C1029.17 1030.5 1038.83 1030.5 1048.5 1030.5Z" fill="#111517"/>
<path fill-rule="evenodd" clip-rule="evenodd" d="M1154.5 1029.5C1158.83 1029.5 1163.17 1029.5 1167.5 1029.5C1167.33 1042.84 1167.5 1056.17 1168 1069.5C1170.17 1074.5 1174 1076.84 1179.5 1076.5C1186.11 1076.79 1190.28 1073.79 1192 1067.5C1192.5 1054.84 1192.67 1042.17 1192.5 1029.5C1196.83 1029.5 1201.17 1029.5 1205.5 1029.5C1205.67 1042.84 1205.5 1056.17 1205 1069.5C1201.45 1083.04 1192.62 1089.37 1178.5 1088.5C1165.78 1088.89 1157.95 1082.89 1155 1070.5C1154.5 1056.84 1154.33 1043.17 1154.5 1029.5Z" fill="#16191C"/>
<path fill-rule="evenodd" clip-rule="evenodd" d="M433.5 1052.5C425.684 1053.49 417.684 1053.83 409.5 1053.5C409.5 1045.83 409.5 1038.17 409.5 1030.5C405.5 1030.5 401.5 1030.5 397.5 1030.5C397.5 1049.5 397.5 1068.5 397.5 1087.5C397.167 1087.5 396.833 1087.5 396.5 1087.5C396.5 1068.17 396.5 1048.83 396.5 1029.5C401.167 1029.5 405.833 1029.5 410.5 1029.5C410.5 1037.17 410.5 1044.83 410.5 1052.5C418.167 1052.5 425.833 1052.5 433.5 1052.5Z" fill="#5E6062"/>
<path fill-rule="evenodd" clip-rule="evenodd" d="M526.5 1029.5C536.681 1029.17 546.681 1029.51 556.5 1030.5C546.833 1030.5 537.167 1030.5 527.5 1030.5C527.5 1049.5 527.5 1068.5 527.5 1087.5C526.503 1068.34 526.17 1049.01 526.5 1029.5Z" fill="#39393B"/>
<path fill-rule="evenodd" clip-rule="evenodd" d="M635.5 1040.5C635.5 1037.17 635.5 1033.83 635.5 1030.5C621.167 1030.5 606.833 1030.5 592.5 1030.5C592.5 1049.5 592.5 1068.5 592.5 1087.5C592.167 1087.5 591.833 1087.5 591.5 1087.5C591.5 1068.17 591.5 1048.83 591.5 1029.5C606.5 1029.5 621.5 1029.5 636.5 1029.5C636.815 1033.37 636.482 1037.04 635.5 1040.5Z" fill="#4F5355"/>
<path fill-rule="evenodd" clip-rule="evenodd" d="M681.5 1030.5C670.5 1030.5 659.5 1030.5 648.5 1030.5C648.5 1049.5 648.5 1068.5 648.5 1087.5C648.167 1087.5 647.833 1087.5 647.5 1087.5C647.5 1068.17 647.5 1048.83 647.5 1029.5C659.012 1029.17 670.346 1029.51 681.5 1030.5Z" fill="#4C4E4F"/>
<path fill-rule="evenodd" clip-rule="evenodd" d="M829.5 1052.5C828.508 1045.35 828.175 1038.02 828.5 1030.5C824.833 1030.5 821.167 1030.5 817.5 1030.5C817.5 1049.5 817.5 1068.5 817.5 1087.5C817.167 1087.5 816.833 1087.5 816.5 1087.5C816.5 1068.17 816.5 1048.83 816.5 1029.5C820.833 1029.5 825.167 1029.5 829.5 1029.5C829.5 1037.17 829.5 1044.83 829.5 1052.5Z" fill="#2C2E31"/>
<path fill-rule="evenodd" clip-rule="evenodd" d="M526.5 1029.5C526.17 1049.01 526.503 1068.34 527.5 1087.5C536.167 1087.5 544.833 1087.5 553.5 1087.5C544.348 1088.49 535.015 1088.83 525.5 1088.5C525.17 1068.66 525.503 1048.99 526.5 1029.5Z" fill="#B4B4B5"/>
<path fill-rule="evenodd" clip-rule="evenodd" d="M1048.5 1030.5C1038.83 1030.5 1029.17 1030.5 1019.5 1030.5C1019.5 1049.5 1019.5 1068.5 1019.5 1087.5C1028.17 1087.5 1036.83 1087.5 1045.5 1087.5C1036.68 1088.49 1027.68 1088.83 1018.5 1088.5C1018.5 1068.83 1018.5 1049.17 1018.5 1029.5C1028.68 1029.17 1038.68 1029.51 1048.5 1030.5Z" fill="#57585A"/>
<path fill-rule="evenodd" clip-rule="evenodd" d="M1269.5 1029.5C1269.5 1029.83 1269.5 1030.17 1269.5 1030.5C1265.83 1030.5 1262.17 1030.5 1258.5 1030.5C1258.5 1042.17 1258.5 1053.83 1258.5 1065.5C1256.82 1065.71 1255.82 1065.05 1255.5 1063.5C1256.12 1063.61 1256.62 1063.94 1257 1064.5C1257.5 1052.84 1257.67 1041.17 1257.5 1029.5C1261.5 1029.5 1265.5 1029.5 1269.5 1029.5Z" fill="#38393C"/>
<path fill-rule="evenodd" clip-rule="evenodd" d="M1269.5 1029.5C1270.5 1048.99 1270.83 1068.66 1270.5 1088.5C1266.63 1088.81 1262.96 1088.48 1259.5 1087.5C1262.83 1087.5 1266.17 1087.5 1269.5 1087.5C1269.5 1068.5 1269.5 1049.5 1269.5 1030.5C1269.5 1030.17 1269.5 1029.83 1269.5 1029.5Z" fill="#6C6D6E"/>
<path fill-rule="evenodd" clip-rule="evenodd" d="M539.5 1041.5C544.844 1041.33 550.177 1041.5 555.5 1042C565.048 1046.6 568.548 1054.1 566 1064.5C564.077 1070.72 559.91 1074.55 553.5 1076C548.845 1076.5 544.179 1076.67 539.5 1076.5C539.5 1064.83 539.5 1053.17 539.5 1041.5Z" fill="#FBFBFB"/>
<path fill-rule="evenodd" clip-rule="evenodd" d="M679.5 1056.5C673.225 1057.42 666.892 1057.75 660.5 1057.5C660.5 1052.17 660.5 1046.83 660.5 1041.5C667.257 1041.12 673.924 1041.62 680.5 1043C683.886 1046.37 684.386 1050.21 682 1054.5C681.292 1055.38 680.458 1056.05 679.5 1056.5Z" fill="#F8F8F8"/>
<path fill-rule="evenodd" clip-rule="evenodd" d="M1031.5 1041.5C1036.84 1041.33 1042.18 1041.5 1047.5 1042C1058.47 1047.32 1061.64 1055.82 1057 1067.5C1054.54 1072.15 1050.71 1074.98 1045.5 1076C1040.85 1076.5 1036.18 1076.67 1031.5 1076.5C1031.5 1064.83 1031.5 1053.17 1031.5 1041.5Z" fill="#FAFBFB"/>
<path fill-rule="evenodd" clip-rule="evenodd" d="M372.5 1065.5C368.702 1064.52 364.702 1064.18 360.5 1064.5C360.5 1061.5 360.5 1058.5 360.5 1055.5C368.167 1055.5 375.833 1055.5 383.5 1055.5C383.5 1063.83 383.5 1072.17 383.5 1080.5C370.182 1089.69 356.182 1090.85 341.5 1084C334.501 1078.82 330.501 1071.99 329.5 1063.5C329.413 1058.46 329.746 1053.46 330.5 1048.5C335.823 1035.66 345.49 1029 359.5 1028.5C368.227 1028.12 375.56 1030.96 381.5 1037C379.514 1039.66 377.514 1042.32 375.5 1045C374.5 1045.67 373.5 1045.67 372.5 1045C363.236 1038.58 354.403 1039.08 346 1046.5C340.271 1057.16 341.771 1066.66 350.5 1075C357.632 1078.4 364.632 1078.07 371.5 1074C372.444 1071.28 372.777 1068.45 372.5 1065.5Z" fill="#131618"/>
<path fill-rule="evenodd" clip-rule="evenodd" d="M516.5 1085.5C512.627 1087.43 508.294 1088.1 503.5 1087.5C502.252 1083.17 500.586 1079 498.5 1075C490.147 1074.17 481.813 1074.33 473.5 1075.5C471.446 1079.33 469.779 1083.33 468.5 1087.5C464.298 1087.82 460.298 1087.48 456.5 1086.5C463.855 1067.26 471.688 1048.26 480 1029.5C484.118 1028.2 488.285 1028.2 492.5 1029.5C501.086 1048 509.086 1066.66 516.5 1085.5Z" fill="#14171A"/>
<path fill-rule="evenodd" clip-rule="evenodd" d="M485.5 1046.5C489.432 1051.37 492.098 1057.04 493.5 1063.5C488.833 1063.5 484.167 1063.5 479.5 1063.5C480.638 1057.55 482.638 1051.89 485.5 1046.5Z" fill="#EFEFF0"/>
<path fill-rule="evenodd" clip-rule="evenodd" d="M853.5 1029.5C853.5 1037.5 853.5 1045.5 853.5 1053.5C845.316 1053.83 837.316 1053.49 829.5 1052.5C837.167 1052.5 844.833 1052.5 852.5 1052.5C852.175 1044.65 852.508 1036.98 853.5 1029.5Z" fill="#606163"/>
<path fill-rule="evenodd" clip-rule="evenodd" d="M384.5 1054.5C376.167 1054.5 367.833 1054.5 359.5 1054.5C359.5 1058.17 359.5 1061.83 359.5 1065.5C358.517 1061.7 358.183 1057.7 358.5 1053.5C367.349 1053.17 376.016 1053.51 384.5 1054.5Z" fill="#ABACAE"/>
<path fill-rule="evenodd" clip-rule="evenodd" d="M384.5 1054.5C384.826 1063.35 384.493 1072.02 383.5 1080.5C383.5 1072.17 383.5 1063.83 383.5 1055.5C375.833 1055.5 368.167 1055.5 360.5 1055.5C360.5 1058.5 360.5 1061.5 360.5 1064.5C364.702 1064.18 368.702 1064.52 372.5 1065.5C368.167 1065.5 363.833 1065.5 359.5 1065.5C359.5 1061.83 359.5 1058.17 359.5 1054.5C367.833 1054.5 376.167 1054.5 384.5 1054.5Z" fill="#2F3032"/>
<path fill-rule="evenodd" clip-rule="evenodd" d="M604.5 1052.5C613.833 1052.5 623.167 1052.5 632.5 1052.5C632.5 1056.5 632.5 1060.5 632.5 1064.5C623.167 1064.5 613.833 1064.5 604.5 1064.5C613.318 1063.51 622.318 1063.17 631.5 1063.5C631.5 1060.17 631.5 1056.83 631.5 1053.5C622.318 1053.83 613.318 1053.49 604.5 1052.5Z" fill="#68696B"/>
<path fill-rule="evenodd" clip-rule="evenodd" d="M960.5 1052.5C959.505 1064.32 959.172 1076.32 959.5 1088.5C954.968 1088.82 950.634 1088.48 946.5 1087.5C950.5 1087.5 954.5 1087.5 958.5 1087.5C958.333 1075.16 958.5 1062.83 959 1050.5C959.717 1051.04 960.217 1051.71 960.5 1052.5Z" fill="#94979A"/>
<path fill-rule="evenodd" clip-rule="evenodd" d="M1232.5 1052.5C1231.5 1064.32 1231.17 1076.32 1231.5 1088.5C1226.97 1088.82 1222.63 1088.48 1218.5 1087.5C1222.5 1087.5 1226.5 1087.5 1230.5 1087.5C1230.17 1075.48 1230.5 1063.48 1231.5 1051.5C1232.11 1051.62 1232.44 1051.96 1232.5 1052.5Z" fill="#808386"/>
<path fill-rule="evenodd" clip-rule="evenodd" d="M1255.5 1063.5C1255.82 1065.05 1256.82 1065.71 1258.5 1065.5C1258.5 1053.83 1258.5 1042.17 1258.5 1030.5C1262.17 1030.5 1265.83 1030.5 1269.5 1030.5C1269.5 1049.5 1269.5 1068.5 1269.5 1087.5C1266.17 1087.5 1262.83 1087.5 1259.5 1087.5C1250.15 1076.14 1241.15 1064.48 1232.5 1052.5C1232.44 1051.96 1232.11 1051.62 1231.5 1051.5C1230.5 1063.48 1230.17 1075.48 1230.5 1087.5C1226.5 1087.5 1222.5 1087.5 1218.5 1087.5C1218.5 1068.17 1218.5 1048.83 1218.5 1029.5C1222.51 1029.33 1226.51 1029.5 1230.5 1030C1239.05 1041.04 1247.38 1052.21 1255.5 1063.5Z" fill="#111517"/>
<path fill-rule="evenodd" clip-rule="evenodd" d="M578.5 1048.5C580.019 1051.53 580.685 1054.86 580.5 1058.5C580.497 1061.03 580.163 1063.36 579.5 1065.5C579.625 1059.8 579.292 1054.13 578.5 1048.5Z" fill="#666769"/>
<path fill-rule="evenodd" clip-rule="evenodd" d="M679.5 1056.5C679.389 1057.12 679.056 1057.62 678.5 1058C672.319 1058.82 666.319 1058.65 660.5 1057.5C666.892 1057.75 673.225 1057.42 679.5 1056.5Z" fill="#57585A"/>
<path fill-rule="evenodd" clip-rule="evenodd" d="M330.5 1048.5C329.746 1053.46 329.413 1058.46 329.5 1063.5C328.838 1061.7 328.505 1059.7 328.5 1057.5C328.343 1054.19 329.009 1051.19 330.5 1048.5Z" fill="#7C7E7E"/>
<path fill-rule="evenodd" clip-rule="evenodd" d="M899.5 1029.5C904.099 1029.2 908.599 1029.53 913 1030.5C921.3 1049.44 929.134 1068.44 936.5 1087.5C932.116 1087.83 927.783 1087.49 923.5 1086.5C921.64 1082.92 919.973 1079.25 918.5 1075.5C910.167 1074.17 901.833 1074.17 893.5 1075.5C891.559 1079.05 889.893 1082.71 888.5 1086.5C884.167 1087.83 879.833 1087.83 875.5 1086.5C883.65 1067.57 891.65 1048.57 899.5 1029.5Z" fill="#131618"/>
<path fill-rule="evenodd" clip-rule="evenodd" d="M904.5 1045.5C905.496 1045.41 906.329 1045.75 907 1046.5C908.866 1051.91 911.033 1057.24 913.5 1062.5C908.544 1063.49 903.544 1063.83 898.5 1063.5C900.698 1057.57 902.698 1051.57 904.5 1045.5Z" fill="#EBECED"/>
<path fill-rule="evenodd" clip-rule="evenodd" d="M1081.5 1063.5C1082.87 1065.94 1083.87 1068.6 1084.5 1071.5C1082.35 1069.38 1081.35 1066.72 1081.5 1063.5Z" fill="#959699"/>
<path fill-rule="evenodd" clip-rule="evenodd" d="M730.5 1064.5C729.838 1068.47 729.505 1072.47 729.5 1076.5C728.84 1075.04 728.507 1073.37 728.5 1071.5C728.316 1068.8 728.983 1066.46 730.5 1064.5Z" fill="#A0A1A3"/>
<path fill-rule="evenodd" clip-rule="evenodd" d="M446.5 1087.5C442.03 1088.49 437.363 1088.82 432.5 1088.5C432.5 1080.83 432.5 1073.17 432.5 1065.5C425.167 1065.5 417.833 1065.5 410.5 1065.5C410.5 1073.17 410.5 1080.83 410.5 1088.5C405.637 1088.82 400.97 1088.49 396.5 1087.5C396.833 1087.5 397.167 1087.5 397.5 1087.5C401.5 1087.5 405.5 1087.5 409.5 1087.5C409.5 1079.83 409.5 1072.17 409.5 1064.5C417.5 1064.5 425.5 1064.5 433.5 1064.5C433.5 1072.17 433.5 1079.83 433.5 1087.5C437.833 1087.5 442.167 1087.5 446.5 1087.5Z" fill="#B3B4B6"/>
<path fill-rule="evenodd" clip-rule="evenodd" d="M747.5 1029.5C752.547 1029.34 757.547 1029.67 762.5 1030.5C770.704 1035.67 772.537 1042.67 768 1051.5C765.408 1054.76 762.241 1057.26 758.5 1059C760.683 1061.35 763.016 1063.52 765.5 1065.5C768.144 1062.89 770.311 1059.89 772 1056.5C774.421 1057.96 776.921 1059.29 779.5 1060.5C780.583 1061.36 780.749 1062.36 780 1063.5C778.082 1067 775.916 1070.34 773.5 1073.5C776.167 1076.5 778.833 1079.5 781.5 1082.5C778.737 1084.63 775.904 1086.63 773 1088.5C770.363 1086.86 768.03 1084.86 766 1082.5C756.29 1089.35 746.124 1090.18 735.5 1085C732.629 1082.75 730.629 1079.92 729.5 1076.5C729.505 1072.47 729.838 1068.47 730.5 1064.5C733.223 1060.96 736.223 1057.63 739.5 1054.5C733.435 1043.13 736.101 1034.79 747.5 1029.5Z" fill="#131618"/>
<path fill-rule="evenodd" clip-rule="evenodd" d="M745.5 1064.5C746.873 1064.34 748.207 1064.51 749.5 1065C751.628 1068.13 754.128 1070.96 757 1073.5C757.507 1075 757.007 1076.16 755.5 1077C746.354 1080.18 742.188 1077.01 743 1067.5C744.045 1066.63 744.878 1065.63 745.5 1064.5Z" fill="#F2F3F3"/>
<path fill-rule="evenodd" clip-rule="evenodd" d="M750.5 1038.5C756.861 1037.7 759.694 1040.36 759 1046.5C753.539 1053.77 750.039 1053.11 748.5 1044.5C748.363 1042.16 749.03 1040.16 750.5 1038.5Z" fill="#ECEDED"/>
<path fill-rule="evenodd" clip-rule="evenodd" d="M853.5 1087.5C852.508 1080.35 852.175 1073.02 852.5 1065.5C845.167 1065.5 837.833 1065.5 830.5 1065.5C830.5 1073.17 830.5 1080.83 830.5 1088.5C825.637 1088.82 820.97 1088.49 816.5 1087.5C816.833 1087.5 817.167 1087.5 817.5 1087.5C821.5 1087.5 825.5 1087.5 829.5 1087.5C829.5 1079.83 829.5 1072.17 829.5 1064.5C837.5 1064.5 845.5 1064.5 853.5 1064.5C853.5 1072.17 853.5 1079.83 853.5 1087.5Z" fill="#BDBEC0"/>
<path fill-rule="evenodd" clip-rule="evenodd" d="M865.5 1029.5C866.497 1048.99 866.83 1068.66 866.5 1088.5C861.968 1088.82 857.634 1088.48 853.5 1087.5C857.5 1087.5 861.5 1087.5 865.5 1087.5C865.5 1068.17 865.5 1048.83 865.5 1029.5Z" fill="#6B6D6E"/>
<path fill-rule="evenodd" clip-rule="evenodd" d="M990.5 1051.5C990.56 1050.96 990.893 1050.62 991.5 1050.5C992.499 1062.82 992.832 1075.15 992.5 1087.5C996.5 1087.5 1000.5 1087.5 1004.5 1087.5C1000.37 1088.48 996.032 1088.82 991.5 1088.5C991.829 1075.99 991.495 1063.66 990.5 1051.5Z" fill="#636667"/>
<path fill-rule="evenodd" clip-rule="evenodd" d="M1119.5 1029.5C1137.29 1034.4 1145.12 1046.06 1143 1064.5C1136.63 1083.44 1123.47 1091.28 1103.5 1088C1094.83 1085.16 1088.49 1079.66 1084.5 1071.5C1083.87 1068.6 1082.87 1065.94 1081.5 1063.5C1079.96 1047.4 1086.62 1036.4 1101.5 1030.5C1107.46 1029.69 1113.46 1029.36 1119.5 1029.5Z" fill="#121518"/>
<path fill-rule="evenodd" clip-rule="evenodd" d="M1128.5 1050.5C1129.95 1052.85 1130.62 1055.51 1130.5 1058.5C1130.49 1060.37 1130.16 1062.04 1129.5 1063.5C1129.53 1059.13 1129.2 1054.8 1128.5 1050.5Z" fill="#868789"/>
<path fill-rule="evenodd" clip-rule="evenodd" d="M1128.5 1050.5C1129.2 1054.8 1129.53 1059.13 1129.5 1063.5C1128.39 1067.95 1126.05 1071.61 1122.5 1074.5C1118.33 1076.06 1113.99 1076.73 1109.5 1076.5C1099.78 1074.09 1094.78 1067.76 1094.5 1057.5C1098.56 1041.14 1108.22 1036.64 1123.5 1044C1125.77 1045.76 1127.43 1047.92 1128.5 1050.5Z" fill="#FAFAFA"/>
<path fill-rule="evenodd" clip-rule="evenodd" d="M1122.5 1074.5C1121.94 1075.79 1120.94 1076.62 1119.5 1077C1115.97 1077.81 1112.64 1077.64 1109.5 1076.5C1113.99 1076.73 1118.33 1076.06 1122.5 1074.5Z" fill="#454648"/>
<path fill-rule="evenodd" clip-rule="evenodd" d="M661.5 1069.5C661.5 1075.83 661.5 1082.17 661.5 1088.5C656.637 1088.82 651.97 1088.49 647.5 1087.5C647.833 1087.5 648.167 1087.5 648.5 1087.5C652.5 1087.5 656.5 1087.5 660.5 1087.5C660.177 1081.31 660.51 1075.31 661.5 1069.5Z" fill="#AEAFB0"/>
<path fill-rule="evenodd" clip-rule="evenodd" d="M456.5 1086.5C460.298 1087.48 464.298 1087.82 468.5 1087.5C464.317 1088.81 459.984 1088.81 455.5 1087.5C455.624 1086.89 455.957 1086.56 456.5 1086.5Z" fill="#878787"/>
<path fill-rule="evenodd" clip-rule="evenodd" d="M516.5 1085.5C517.404 1086.21 517.737 1087.21 517.5 1088.5C512.637 1088.82 507.97 1088.49 503.5 1087.5C508.294 1088.1 512.627 1087.43 516.5 1085.5Z" fill="#8E8E8E"/>
<path fill-rule="evenodd" clip-rule="evenodd" d="M635.5 1076.5C636.483 1080.3 636.817 1084.3 636.5 1088.5C621.324 1088.83 606.324 1088.5 591.5 1087.5C591.833 1087.5 592.167 1087.5 592.5 1087.5C606.833 1087.5 621.167 1087.5 635.5 1087.5C635.5 1083.83 635.5 1080.17 635.5 1076.5Z" fill="#838383"/>
<path fill-rule="evenodd" clip-rule="evenodd" d="M697.5 1086.5C698.043 1086.56 698.376 1086.89 698.5 1087.5C693.348 1088.81 688.348 1088.81 683.5 1087.5C688.363 1087.82 693.03 1087.49 697.5 1086.5Z" fill="#8D8D8D"/>
<path fill-rule="evenodd" clip-rule="evenodd" d="M798.5 1148.5C786.167 1148.5 773.833 1148.5 761.5 1148.5C761.5 1150.83 761.5 1153.17 761.5 1155.5C766.167 1155.5 770.833 1155.5 775.5 1155.5C775.5 1155.83 775.5 1156.17 775.5 1156.5C770.5 1156.5 765.5 1156.5 760.5 1156.5C760.5 1153.5 760.5 1150.5 760.5 1147.5C773.344 1147.17 786.011 1147.5 798.5 1148.5Z" fill="#9C9E9F"/>
<path fill-rule="evenodd" clip-rule="evenodd" d="M902.5 1148.5C910.99 1147.34 919.657 1147.18 928.5 1148C929.416 1148.28 930.082 1148.78 930.5 1149.5C921.54 1148.59 912.54 1148.25 903.5 1148.5C903.167 1148.5 902.833 1148.5 902.5 1148.5Z" fill="#9C9EA0"/>
<path fill-rule="evenodd" clip-rule="evenodd" d="M621.5 1148.5C629.507 1148.33 637.507 1148.5 645.5 1149C655.142 1152.11 658.642 1158.61 656 1168.5C653.557 1174.61 649.057 1178.11 642.5 1179C638.179 1179.5 633.846 1179.67 629.5 1179.5C628.514 1183.97 628.181 1188.64 628.5 1193.5C626.167 1193.5 623.833 1193.5 621.5 1193.5C621.5 1178.5 621.5 1163.5 621.5 1148.5Z" fill="#131619"/>
<path fill-rule="evenodd" clip-rule="evenodd" d="M717.5 1148.5C726.506 1148.33 735.506 1148.5 744.5 1149C752.792 1152.09 755.959 1157.92 754 1166.5C752.904 1171.76 749.737 1174.76 744.5 1175.5C744.351 1176.55 744.517 1177.55 745 1178.5C748.695 1183.36 752.195 1188.36 755.5 1193.5C752.554 1194.65 749.554 1194.82 746.5 1194C742.701 1188.89 739.034 1183.73 735.5 1178.5C732.038 1177.52 728.371 1177.19 724.5 1177.5C724.5 1182.83 724.5 1188.17 724.5 1193.5C722.167 1193.5 719.833 1193.5 717.5 1193.5C717.5 1178.5 717.5 1163.5 717.5 1148.5Z" fill="#15181A"/>
<path fill-rule="evenodd" clip-rule="evenodd" d="M798.5 1148.5C798.5 1150.83 798.5 1153.17 798.5 1155.5C793.5 1155.5 788.5 1155.5 783.5 1155.5C783.5 1168.17 783.5 1180.83 783.5 1193.5C781.167 1193.5 778.833 1193.5 776.5 1193.5C776.829 1180.66 776.495 1167.99 775.5 1155.5C770.833 1155.5 766.167 1155.5 761.5 1155.5C761.5 1153.17 761.5 1150.83 761.5 1148.5C773.833 1148.5 786.167 1148.5 798.5 1148.5Z" fill="#131619"/>
<path fill-rule="evenodd" clip-rule="evenodd" d="M892.5 1148.5C892.5 1150.83 892.5 1153.17 892.5 1155.5C884.167 1155.5 875.833 1155.5 867.5 1155.5C866.517 1159.3 866.183 1163.3 866.5 1167.5C874.167 1167.5 881.833 1167.5 889.5 1167.5C889.5 1169.83 889.5 1172.17 889.5 1174.5C881.833 1174.5 874.167 1174.5 866.5 1174.5C866.5 1178.5 866.5 1182.5 866.5 1186.5C874.984 1187.49 883.651 1187.83 892.5 1187.5C892.5 1189.5 892.5 1191.5 892.5 1193.5C881.5 1193.5 870.5 1193.5 859.5 1193.5C859.5 1178.5 859.5 1163.5 859.5 1148.5C870.5 1148.5 881.5 1148.5 892.5 1148.5Z" fill="#131619"/>
<path fill-rule="evenodd" clip-rule="evenodd" d="M846.5 1148.5C847.496 1163.66 847.83 1178.99 847.5 1194.5C844.615 1194.81 841.948 1194.47 839.5 1193.5C841.833 1193.5 844.167 1193.5 846.5 1193.5C846.5 1178.5 846.5 1163.5 846.5 1148.5Z" fill="#8F9195"/>
<path fill-rule="evenodd" clip-rule="evenodd" d="M814.5 1148.5C812.167 1148.5 809.833 1148.5 807.5 1148.5C807.5 1163.5 807.5 1178.5 807.5 1193.5C809.833 1193.5 812.167 1193.5 814.5 1193.5C814.5 1193.83 814.5 1194.17 814.5 1194.5C811.833 1194.5 809.167 1194.5 806.5 1194.5C806.5 1178.83 806.5 1163.17 806.5 1147.5C809.385 1147.19 812.052 1147.53 814.5 1148.5Z" fill="#58595B"/>
<path fill-rule="evenodd" clip-rule="evenodd" d="M846.5 1148.5C844.167 1148.5 841.833 1148.5 839.5 1148.5C839.832 1158.85 839.499 1169.19 838.5 1179.5C837.893 1179.38 837.56 1179.04 837.5 1178.5C838.494 1168.35 838.828 1158.01 838.5 1147.5C841.385 1147.19 844.052 1147.53 846.5 1148.5Z" fill="#828587"/>
<path fill-rule="evenodd" clip-rule="evenodd" d="M629.5 1155.5C633.514 1155.33 637.514 1155.5 641.5 1156C648.53 1157.74 650.364 1161.91 647 1168.5C645.512 1170.16 643.679 1171.16 641.5 1171.5C637.5 1171.5 633.5 1171.5 629.5 1171.5C629.5 1166.17 629.5 1160.83 629.5 1155.5Z" fill="#F7F8F8"/>
<path fill-rule="evenodd" clip-rule="evenodd" d="M725.5 1155.5C730.844 1155.33 736.177 1155.5 741.5 1156C746.143 1158.07 747.643 1161.57 746 1166.5C744.786 1168.05 743.286 1169.22 741.5 1170C736.177 1170.5 730.844 1170.67 725.5 1170.5C725.5 1165.5 725.5 1160.5 725.5 1155.5Z" fill="#F6F7F7"/>
<path fill-rule="evenodd" clip-rule="evenodd" d="M798.5 1155.5C794.03 1156.49 789.363 1156.82 784.5 1156.5C784.829 1169.34 784.495 1182.01 783.5 1194.5C783.5 1194.17 783.5 1193.83 783.5 1193.5C783.5 1180.83 783.5 1168.17 783.5 1155.5C788.5 1155.5 793.5 1155.5 798.5 1155.5Z" fill="#A6A7A7"/>
<path fill-rule="evenodd" clip-rule="evenodd" d="M629.5 1155.5C629.5 1160.83 629.5 1166.17 629.5 1171.5C633.5 1171.5 637.5 1171.5 641.5 1171.5C637.366 1172.48 633.032 1172.82 628.5 1172.5C628.178 1166.64 628.511 1160.98 629.5 1155.5Z" fill="#626466"/>
<path fill-rule="evenodd" clip-rule="evenodd" d="M775.5 1155.5C776.495 1167.99 776.829 1180.66 776.5 1193.5C778.833 1193.5 781.167 1193.5 783.5 1193.5C783.5 1193.83 783.5 1194.17 783.5 1194.5C780.833 1194.5 778.167 1194.5 775.5 1194.5C775.5 1181.83 775.5 1169.17 775.5 1156.5C775.5 1156.17 775.5 1155.83 775.5 1155.5Z" fill="#4C4D4F"/>
<path fill-rule="evenodd" clip-rule="evenodd" d="M958.5 1147.5C964.732 1146.94 970.732 1147.77 976.5 1150C981.838 1153.03 981.671 1155.86 976 1158.5C972.203 1156.85 968.37 1155.51 964.5 1154.5C957.429 1155.42 955.763 1158.92 959.5 1165C964.066 1166.64 968.732 1167.98 973.5 1169C982.673 1173.52 984.84 1180.36 980 1189.5C978.269 1191.62 976.102 1193.12 973.5 1194C963.533 1196.36 954.866 1194.2 947.5 1187.5C948.556 1185.35 950.056 1183.69 952 1182.5C957.442 1186.74 963.609 1188.24 970.5 1187C974.872 1184.81 975.539 1181.81 972.5 1178C965.992 1176.12 959.659 1173.79 953.5 1171C949.758 1166.48 948.591 1161.32 950 1155.5C952.074 1151.92 954.907 1149.26 958.5 1147.5Z" fill="#171A1D"/>
<path fill-rule="evenodd" clip-rule="evenodd" d="M814.5 1148.5C822.167 1158.5 829.833 1168.5 837.5 1178.5C837.56 1179.04 837.893 1179.38 838.5 1179.5C839.499 1169.19 839.832 1158.85 839.5 1148.5C841.833 1148.5 844.167 1148.5 846.5 1148.5C846.5 1163.5 846.5 1178.5 846.5 1193.5C844.167 1193.5 841.833 1193.5 839.5 1193.5C831.833 1183.5 824.167 1173.5 816.5 1163.5C816.44 1162.96 816.107 1162.62 815.5 1162.5C814.501 1172.81 814.168 1183.15 814.5 1193.5C812.167 1193.5 809.833 1193.5 807.5 1193.5C807.5 1178.5 807.5 1163.5 807.5 1148.5C809.833 1148.5 812.167 1148.5 814.5 1148.5Z" fill="#131618"/>
<path fill-rule="evenodd" clip-rule="evenodd" d="M816.5 1163.5C815.833 1173.83 815.167 1184.17 814.5 1194.5C814.5 1194.17 814.5 1193.83 814.5 1193.5C814.168 1183.15 814.501 1172.81 815.5 1162.5C816.107 1162.62 816.44 1162.96 816.5 1163.5Z" fill="#B1B5B8"/>
<path fill-rule="evenodd" clip-rule="evenodd" d="M867.5 1155.5C867.5 1159.17 867.5 1162.83 867.5 1166.5C875.019 1166.18 882.352 1166.51 889.5 1167.5C881.833 1167.5 874.167 1167.5 866.5 1167.5C866.183 1163.3 866.517 1159.3 867.5 1155.5Z" fill="#ABACAD"/>
<path fill-rule="evenodd" clip-rule="evenodd" d="M669.5 1193.5C666.612 1194.01 664.279 1193.34 662.5 1191.5C668.643 1177.21 674.809 1162.88 681 1148.5C683.795 1147.22 686.628 1147.22 689.5 1148.5C696.428 1163.68 702.762 1179.01 708.5 1194.5C705.813 1194.66 703.146 1194.5 700.5 1194C699.268 1190.81 697.935 1187.64 696.5 1184.5C688.862 1183.5 681.196 1183.17 673.5 1183.5C672.373 1186.87 671.04 1190.21 669.5 1193.5Z" fill="#1A1D1F"/>
<path fill-rule="evenodd" clip-rule="evenodd" d="M683.5 1158.5C684.496 1158.41 685.329 1158.75 686 1159.5C688.462 1164.75 690.629 1170.09 692.5 1175.5C687.456 1175.83 682.456 1175.49 677.5 1174.5C680.076 1169.35 682.076 1164.02 683.5 1158.5Z" fill="#EDEEEF"/>
<path fill-rule="evenodd" clip-rule="evenodd" d="M902.5 1148.5C902.833 1148.5 903.167 1148.5 903.5 1148.5C903.5 1163.5 903.5 1178.5 903.5 1193.5C905.833 1193.5 908.167 1193.5 910.5 1193.5C910.5 1193.83 910.5 1194.17 910.5 1194.5C907.833 1194.5 905.167 1194.5 902.5 1194.5C902.5 1179.17 902.5 1163.83 902.5 1148.5Z" fill="#47494B"/>
<path fill-rule="evenodd" clip-rule="evenodd" d="M903.5 1148.5C912.54 1148.25 921.54 1148.59 930.5 1149.5C939.615 1153.41 942.449 1160.07 939 1169.5C937.062 1172.88 934.229 1174.88 930.5 1175.5C932.965 1181.64 936.298 1187.31 940.5 1192.5C938.052 1193.47 935.385 1193.81 932.5 1193.5C928.479 1188.8 924.812 1183.8 921.5 1178.5C918.038 1177.52 914.371 1177.19 910.5 1177.5C910.5 1182.83 910.5 1188.17 910.5 1193.5C908.167 1193.5 905.833 1193.5 903.5 1193.5C903.5 1178.5 903.5 1163.5 903.5 1148.5Z" fill="#131618"/>
<path fill-rule="evenodd" clip-rule="evenodd" d="M925.5 1156.5C933.016 1158.54 934.349 1162.7 929.5 1169C927.975 1170.01 926.308 1170.51 924.5 1170.5C920.167 1170.5 915.833 1170.5 911.5 1170.5C911.5 1165.83 911.5 1161.17 911.5 1156.5C916.167 1156.5 920.833 1156.5 925.5 1156.5Z" fill="#FAFAFA"/>
<path fill-rule="evenodd" clip-rule="evenodd" d="M925.5 1156.5C920.833 1156.5 916.167 1156.5 911.5 1156.5C911.5 1161.17 911.5 1165.83 911.5 1170.5C915.833 1170.5 920.167 1170.5 924.5 1170.5C920.03 1171.49 915.363 1171.82 910.5 1171.5C910.5 1166.17 910.5 1160.83 910.5 1155.5C915.695 1155.18 920.695 1155.51 925.5 1156.5Z" fill="#AAABAD"/>
<path fill-rule="evenodd" clip-rule="evenodd" d="M889.5 1174.5C882.352 1175.49 875.019 1175.82 867.5 1175.5C867.5 1179.17 867.5 1182.83 867.5 1186.5C867.167 1186.5 866.833 1186.5 866.5 1186.5C866.5 1182.5 866.5 1178.5 866.5 1174.5C874.167 1174.5 881.833 1174.5 889.5 1174.5Z" fill="#B1B3B5"/>
<path fill-rule="evenodd" clip-rule="evenodd" d="M717.5 1148.5C717.5 1163.5 717.5 1178.5 717.5 1193.5C719.833 1193.5 722.167 1193.5 724.5 1193.5C724.5 1188.17 724.5 1182.83 724.5 1177.5C728.371 1177.19 732.038 1177.52 735.5 1178.5C732.167 1178.5 728.833 1178.5 725.5 1178.5C725.5 1183.83 725.5 1189.17 725.5 1194.5C722.5 1194.5 719.5 1194.5 716.5 1194.5C716.17 1178.99 716.504 1163.66 717.5 1148.5Z" fill="#797B7D"/>
<path fill-rule="evenodd" clip-rule="evenodd" d="M921.5 1178.5C918.167 1178.5 914.833 1178.5 911.5 1178.5C911.821 1184.03 911.488 1189.36 910.5 1194.5C910.5 1194.17 910.5 1193.83 910.5 1193.5C910.5 1188.17 910.5 1182.83 910.5 1177.5C914.371 1177.19 918.038 1177.52 921.5 1178.5Z" fill="#A8ABAE"/>
<path fill-rule="evenodd" clip-rule="evenodd" d="M621.5 1148.5C621.5 1163.5 621.5 1178.5 621.5 1193.5C623.833 1193.5 626.167 1193.5 628.5 1193.5C628.181 1188.64 628.514 1183.97 629.5 1179.5C629.5 1184.5 629.5 1189.5 629.5 1194.5C626.5 1194.5 623.5 1194.5 620.5 1194.5C620.17 1178.99 620.504 1163.66 621.5 1148.5Z" fill="#7E7F81"/>
<path fill-rule="evenodd" clip-rule="evenodd" d="M662.5 1191.5C664.279 1193.34 666.612 1194.01 669.5 1193.5C667.052 1194.47 664.385 1194.81 661.5 1194.5C661.263 1193.21 661.596 1192.21 662.5 1191.5Z" fill="#656769"/>
<path fill-rule="evenodd" clip-rule="evenodd" d="M892.5 1148.5C881.5 1148.5 870.5 1148.5 859.5 1148.5C859.5 1163.5 859.5 1178.5 859.5 1193.5C870.5 1193.5 881.5 1193.5 892.5 1193.5C892.5 1191.5 892.5 1189.5 892.5 1187.5C883.651 1187.83 874.984 1187.49 866.5 1186.5C866.833 1186.5 867.167 1186.5 867.5 1186.5C876.167 1186.5 884.833 1186.5 893.5 1186.5C893.5 1189.17 893.5 1191.83 893.5 1194.5C881.833 1194.5 870.167 1194.5 858.5 1194.5C858.5 1178.83 858.5 1163.17 858.5 1147.5C870.012 1147.17 881.346 1147.51 892.5 1148.5Z" fill="#6E7071"/>
<path fill-rule="evenodd" clip-rule="evenodd" d="M940.5 1192.5C941.043 1192.56 941.376 1192.89 941.5 1193.5C938.355 1194.8 935.355 1194.8 932.5 1193.5C935.385 1193.81 938.052 1193.47 940.5 1192.5Z" fill="#6B6C6E"/>
</g>
<defs>
<clipPath id="clip0_505_1054">
<rect width="1600" height="1600" fill="white"/>
</clipPath>
</defs>
</svg>
