<svg width="683" height="683" viewBox="0 0 683 683" fill="none" xmlns="http://www.w3.org/2000/svg">
<g clip-path="url(#clip0_489_441)">
<path d="M184.533 2.40005C174.266 6.00005 167.466 12.1334 162.4 22.4L158 31.3334L157.6 130.933L157.2 230.533L152.266 231.333C113.6 237.867 85.4665 250.933 76.1332 266.667C72.7998 272.533 72.6665 273.2 72.2665 299.467L71.8665 326.133L61.8665 331.067C50.1332 336.933 41.1998 344.667 37.3332 352.533C34.7998 357.733 34.6665 360.533 34.6665 391.467C34.6665 420.667 35.0665 425.333 37.1998 430C40.5332 437.6 51.4665 446.8 63.8665 452.8C73.8665 457.6 74.5332 458.133 73.5998 461.333C72.3998 465.733 72.3998 527.6 73.5998 532C74.5332 535.2 73.8665 535.733 63.7332 540.4C51.4665 546.267 40.7998 555.467 37.1998 563.333C35.0665 568 34.6665 572.533 34.6665 602C34.6665 640.133 35.0665 641.867 45.7332 651.6C61.0665 665.733 91.8665 675.733 135.466 680.8C153.2 682.8 153.866 682.8 157.2 680.267C159.6 678.533 160.8 676.267 161.066 672.933C161.733 665.733 158.266 663.067 147.066 662C105.733 658.267 71.7332 648.4 59.3332 636.8L54.6665 632.4V617.6V602.8L66.1332 608.267C78.9332 614.267 100.4 620 122.933 623.6C144.666 627.067 210 627.067 231.733 623.6C254.266 620 275.733 614.267 288.533 608.267L300 602.8V617.6V632.4L295.333 636.8C282.666 648.667 245.333 659.2 205.733 662.133C191.466 663.2 188 665.2 188 672.667C188 678.667 192.266 682.667 198.533 682.667C205.733 682.667 235.066 679.067 248 676.533C263.466 673.6 282.8 667.333 293.6 661.733C310.8 652.8 320 641.6 320 629.6V624.133L468.4 623.733L616.666 623.333L624.133 619.867C632.933 615.733 640.133 608.667 644.266 600.133C647.333 594 647.333 593.6 647.733 529.867C648.133 466.4 648.133 465.733 645.333 462.267C641.6 457.6 635.733 457.467 631.333 462L628 465.2V526C628 591.733 628 592 620.666 598.667L617.066 602L468.533 602.4L320 602.667L319.866 585.733C319.866 576.267 319.333 567.467 318.8 566C317.866 563.733 319.2 562.667 328.933 557.867C335.2 554.8 341.466 551.067 343.066 549.6C345.466 547.333 348.266 546.8 360.133 546.4C371.866 546 375.2 545.467 380.533 542.667C398.533 533.333 401.6 508.4 386.266 495.333C380 490 374.266 488 364.4 488H357.333V478V468H364.133C384.4 468 397.066 455.2 395.733 436.133C395.066 426.133 390.533 418.933 381.733 413.733C376 410.4 374 410 359.066 409.6C340 408.933 332.133 410.4 325.066 416.133L320 420.133V400.133V380L326.133 384.4L332.266 388.667L353.333 389.067C372.266 389.467 374.933 389.2 379.6 386.933C400.933 375.867 401.6 346.133 380.666 334.933C378.533 333.867 372.533 332.533 367.333 332.133L358 331.333V312V292.667L367.333 292C377.466 291.2 382.8 288.933 388.133 283.067C393.733 277.2 396 271.467 396 263.733C396 254.933 392.533 247.2 386.266 241.733C379.066 235.467 373.866 234.4 351.866 234.933C333.2 235.333 332.266 235.467 326.8 239.067L321.2 242.8L310.666 239.467C280.666 230 260.666 227.467 214.933 227.333H177.333L177.6 130.4C178 34.9334 178 33.4667 180.8 29.8667C182.266 27.8667 185.2 24.9334 187.2 23.4667C190.666 20.8 192.8 20.6667 236.4 20.2667C280.8 19.8667 282 19.8667 284.933 17.0667C289.066 13.2 288.933 6.66671 284.933 2.93338C281.866 4.57764e-05 281.2 4.57764e-05 236.533 4.57764e-05C196.933 0.133379 190.533 0.400046 184.533 2.40005ZM250.8 248C296.933 252.533 337.333 267.333 337.333 279.6C337.333 290.933 304.133 304.4 262.133 310.267C239.733 313.333 189.333 313.333 167.333 310.133C134 305.333 103.466 294.8 95.4665 285.2C93.5998 282.933 91.9998 280.533 91.9998 280C91.9998 277.067 101.066 268.8 107.866 265.333C122.8 257.867 151.2 250.8 177.333 248.133C193.6 246.533 234.666 246.4 250.8 248ZM373.6 256.933C376.533 259.6 376.666 266.267 373.733 269.6C372.133 271.333 369.6 272 363.866 272C357.2 272 356 271.6 355.333 269.2C354.8 267.6 352 263.6 349.066 260.533L343.6 254.667H357.333C368.266 254.667 371.6 255.067 373.6 256.933ZM106.133 315.067C163.333 339.6 273.333 338.8 328 313.467C332 311.6 335.733 309.867 336.4 309.6C337.866 308.933 337.6 337.067 336 339.867C335.333 341.2 331.866 344.267 328.266 346.533C291.2 370.267 194.266 376.267 130.666 358.667C117.066 354.8 99.7332 346.267 95.4665 341.2C92.2665 337.333 91.9998 336.267 91.9998 323.067C91.9998 312.4 92.3998 309.2 93.7332 309.733C94.5332 310.133 100.266 312.533 106.133 315.067ZM94.3998 365.333C110.533 374.8 139.6 382.8 172.666 386.8C187.066 388.533 236.533 389.2 250.666 387.733L259.333 386.8L249.333 389.333C220.933 396.533 166.666 398.667 131.333 394C98.9332 389.733 70.9332 380.667 59.5998 370.8C56.9332 368.4 54.6665 365.333 54.6665 364C54.6665 360.267 59.7332 354.933 67.0665 350.667L73.9998 346.8L79.7332 353.333C82.9332 357.067 89.5998 362.4 94.3998 365.333ZM373.6 354.267C376.533 356.933 376.666 363.6 373.733 366.933C371.866 369.067 369.466 369.333 355.466 369.333C336.8 369.333 333.333 368 339.2 363.6C341.466 362 345.333 358.667 347.866 356.4C352.266 352.4 353.333 352.133 361.866 352C368.666 352 371.733 352.533 373.6 354.267ZM77.8665 402.533C91.5998 407.333 116 412.533 136 414.8C153.733 416.8 200.4 416.8 218.666 414.8C248.133 411.467 279.733 403.333 294.4 395.333L300 392.133V406.667C300 420.267 299.866 421.333 296.533 425.2C292.266 430.267 274.933 438.8 261.333 442.533C222.933 453.067 163.2 455.333 119.2 448C90.1332 443.067 65.3332 433.733 57.8665 425.067C54.9332 421.467 54.6665 420.133 54.6665 406.667V392.133L60.3998 395.333C63.4665 397.067 71.3332 400.267 77.8665 402.533ZM372.533 432.133C376.8 435.467 377.2 441.467 373.333 445.333C371.066 447.6 368.933 448 360 448C349.466 448 348.933 447.867 341.333 442.4C334.533 437.733 333.6 436.533 334.8 434.4C336.933 430.4 340.933 429.467 355.466 429.467C367.2 429.333 369.466 429.733 372.533 432.133ZM318.666 452.8C329.866 458 337.333 464.4 337.333 468.667C337.333 476.267 318 487.067 293.2 493.2C271.066 498.8 246.266 501.467 216 501.467C187.6 501.6 169.333 500 148.666 495.867C113.066 488.667 85.7332 473.733 93.5998 465.733C95.4665 464 96.6665 463.867 101.733 465.067C133.2 473.067 193.6 474.667 234.133 468.667C259.2 464.933 285.066 457.067 297.333 449.467C302.933 446.133 304.933 446.4 318.666 452.8ZM126.8 511.333C173.466 524 240.266 525.2 290.266 514.533C304.133 511.467 322 505.733 330.266 501.467C333.333 500 336.266 498.667 336.666 498.667C337.066 498.667 337.333 505.2 337.333 513.2V527.733L332.4 532.133C322.266 541.067 302.133 548.267 272.666 553.467C250.133 557.467 199.066 558.533 172.666 555.467C147.066 552.533 124.8 546.8 109.733 539.333C92.7998 530.933 91.9998 529.733 91.9998 511.867V497.467L103.2 502.667C109.333 505.6 119.866 509.467 126.8 511.333ZM373.333 510.667C380 517.333 373.866 527.2 363.466 526.4L358 526L357.6 516.933L357.2 508H364C368.933 508 371.333 508.667 373.333 510.667ZM97.4665 556C113.466 564.8 145.066 572.933 176.4 576C201.066 578.533 253.733 577.067 274.666 573.333C296.666 569.333 299.2 569.2 299.733 572.8C301.066 581.733 279.733 593.2 248.933 600.133C208.133 609.2 142.8 608.933 103.066 599.333C79.3332 593.6 61.3332 585.333 56.5332 578C53.7332 573.6 55.1998 569.733 61.8665 564.667C66.3998 561.2 85.8665 552 88.7998 552C89.5998 552 93.4665 553.733 97.4665 556Z" fill="#7F7F7F"/>
<path d="M317.6 3.06684C313.733 7.20017 313.733 13.3335 317.733 17.0668L320.8 20.0002L468.133 20.2668L615.333 20.6668L619.467 23.6002C628.667 30.1335 628 14.9335 628 230.667C628 352.8 628.533 426.4 629.333 427.867C630 429.2 632.267 431.067 634.533 431.867C637.733 433.2 639.067 433.2 642.533 431.467C644.8 430.267 646.933 428 647.333 426.267C647.733 424.667 647.867 334.534 647.733 226L647.333 28.6668L644.267 23.0668C639.867 14.6668 634.4 8.93351 626.4 4.53351L619.333 0.666839L469.867 0.266839L320.533 0.000172739L317.6 3.06684Z" fill="#7F7F7F"/>
<path d="M218.667 74.6667C216.133 77.2 216 79.0667 216 131.067C216 184.133 216 184.933 218.8 187.467C221.6 189.867 226.533 190 402.933 190H584.267L587.467 186.267L590.667 182.533V130.533V78.5333L587.333 75.3333L584.133 72H402.667C223.067 72 221.333 72 218.667 74.6667ZM570.4 130.933L570 170L403.067 170.4L236 170.667V131.333V92H403.333H570.667L570.4 130.933Z" fill="#7F7F7F"/>
<path d="M119.466 134.8C112.533 140.267 116.4 152 125.333 152C134.533 152 138.266 141.333 131.2 134.933C127.066 131.333 124 131.2 119.466 134.8Z" fill="#7F7F7F"/>
<path d="M84.6663 170C82.7997 171.733 81.333 174.8 81.333 176.667C81.333 178.533 82.7997 181.6 84.6663 183.333C87.733 186.533 88.3997 186.667 107.2 186.667C128.4 186.667 132.533 185.6 134.4 180C135.866 175.733 133.466 168.8 130 167.467C128.8 167.067 118.8 166.667 107.866 166.667C88.3997 166.667 87.733 166.8 84.6663 170Z" fill="#7F7F7F"/>
<path d="M86.933 198.667C83.9997 199.867 81.333 204.8 81.333 208.8C81.333 209.867 82.7997 212.267 84.6663 214C87.8663 217.2 88.3997 217.333 108.666 217.333C127.6 217.333 129.6 217.067 132 214.667C136.4 210.267 136 204.667 131.2 200.267C128 197.467 126.8 197.333 108.933 197.467C98.533 197.467 88.6663 198 86.933 198.667Z" fill="#7F7F7F"/>
<path d="M428 236.133C418.133 240.133 409.333 252.533 409.333 262.533C409.333 273.867 416.266 285.067 425.866 289.467C434 293.2 468.533 293.2 475.733 289.467C497.6 278.267 497.333 247.333 475.333 237.2C470.933 235.2 466.8 234.8 450.666 234.8C440 234.8 429.866 235.467 428 236.133ZM469.6 256.933C472.533 259.6 472.666 266.267 469.733 269.6C467.866 271.733 465.333 272 451.066 272C436.4 272 434.4 271.733 432 269.333C430.533 267.867 429.333 265.2 429.333 263.333C429.333 261.467 430.533 258.8 432 257.333C434.4 254.933 436.4 254.667 450.933 254.667C464.133 254.667 467.6 255.067 469.6 256.933Z" fill="#7F7F7F"/>
<path d="M521.6 237.467C504.667 245.867 500.267 267.333 512.4 282.133C519.333 290.533 524.4 292 547.067 292C563.867 292 567.467 291.6 571.733 289.467C593.6 278.267 593.333 247.333 571.333 237.2C566.933 235.2 562.667 234.667 546.667 234.667C529.6 234.667 526.667 235.067 521.6 237.467ZM565.6 256.933C568.533 259.6 568.667 266.267 565.733 269.6C563.867 271.733 561.333 272 547.067 272C532.4 272 530.4 271.733 528 269.333C526.533 267.867 525.333 265.2 525.333 263.333C525.333 261.467 526.533 258.8 528 257.333C530.4 254.933 532.4 254.667 546.933 254.667C560.133 254.667 563.6 255.067 565.6 256.933Z" fill="#7F7F7F"/>
<path d="M425.6 334.8C404.133 345.467 404.267 376.133 425.733 386.533C430.8 388.933 433.867 389.333 450.8 389.333C472 389.333 477.333 387.867 484.267 380.533C497.6 366.267 493.067 342.8 475.333 334.533C470.933 332.533 466.667 332 450.667 332C433.6 332 430.667 332.4 425.6 334.8ZM469.6 354.267C472.533 356.933 472.667 363.6 469.733 366.933C467.867 369.067 465.333 369.333 451.067 369.333C436.4 369.333 434.4 369.067 432 366.667C430.533 365.2 429.333 362.533 429.333 360.667C429.333 358.8 430.533 356.133 432 354.667C434.4 352.267 436.4 352 450.933 352C464.133 352 467.6 352.4 469.6 354.267Z" fill="#7F7F7F"/>
<path d="M521.6 334.8C504.667 343.2 500.267 364.667 512.4 379.467C519.333 387.733 524.533 389.333 546.667 389.333C568 389.333 573.333 387.867 580.267 380.533C593.6 366.267 589.067 342.8 571.333 334.533C566.933 332.533 562.667 332 546.667 332C529.6 332 526.667 332.4 521.6 334.8ZM565.6 354.267C568.533 356.933 568.667 363.6 565.733 366.933C563.867 369.067 561.333 369.333 547.067 369.333C532.4 369.333 530.4 369.067 528 366.667C526.533 365.2 525.333 362.533 525.333 360.667C525.333 358.8 526.533 356.133 528 354.667C530.4 352.267 532.4 352 546.933 352C560.133 352 563.6 352.4 565.6 354.267Z" fill="#7F7F7F"/>
<path d="M430.133 410.933C422.666 412.933 412.666 423.067 410.666 430.667C407.066 444.267 412.8 457.867 425.2 464.267C431.866 467.733 433.2 468 449.6 468C470.533 468 476.133 466.533 483.466 459.2C490.266 452.533 492.533 446.133 491.733 435.867C491.066 425.867 485.733 418.133 476.533 413.333C470.666 410.267 468.4 410 452.666 409.733C443.2 409.6 432.933 410.133 430.133 410.933ZM468.533 432.133C472.8 435.467 473.2 441.467 469.333 445.333C466.8 447.867 465.2 448 450.4 447.733C434.533 447.333 434.266 447.333 431.6 443.733C429.333 440.667 429.066 439.333 430.133 436.4C432 430.8 436.4 429.333 451.466 429.333C463.066 429.333 465.466 429.733 468.533 432.133Z" fill="#7F7F7F"/>
<path d="M526.133 410.933C518.666 412.933 508.666 423.067 506.666 430.667C503.066 444.267 508.8 457.867 521.2 464.267C527.866 467.733 529.2 468 545.6 468C565.066 468 571.066 466.667 577.866 461.2C593.333 448.4 590.533 422.533 572.666 413.333C566.666 410.267 564.4 410 548.666 409.733C539.2 409.6 528.933 410.133 526.133 410.933ZM564.533 432.133C568.8 435.467 569.2 441.467 565.333 445.333C562.933 447.733 560.933 448 547.066 448C532.933 448 531.2 447.733 528.4 445.067C524.4 441.333 524.533 436.667 528.666 432.667C531.733 429.467 532.8 429.333 546.4 429.333C559.066 429.333 561.466 429.733 564.533 432.133Z" fill="#7F7F7F"/>
<path d="M425.2 491.733C404 502.8 404.4 531.6 425.867 543.067C430.8 545.733 433.333 546 450.667 546C468.8 546 470.533 545.733 476.667 542.667C485.867 537.867 492 527.867 492 517.467C492 504.533 483.867 493.067 472.133 489.467C469.333 488.667 459.2 488 449.6 488C433.2 488 431.867 488.267 425.2 491.733ZM469.333 510.667C473.2 514.533 472.8 520.533 468.4 524C465.067 526.667 463.467 526.8 449.6 526.4C435.467 526 434.267 525.733 431.867 522.8C428.533 518.667 428.667 514.933 432.267 511.067C434.933 508.133 436.133 508 450.933 508C464.933 508 466.933 508.267 469.333 510.667Z" fill="#7F7F7F"/>
<path d="M521.2 491.734C508.8 498.134 503.066 511.734 506.666 525.334C508.8 533.467 518.666 542.934 527.066 545.067C534.8 547.067 558.933 547.067 566 545.2C588.8 539.067 595.733 509.6 577.866 494.8C571.066 489.334 565.066 488 545.6 488C529.2 488 527.866 488.267 521.2 491.734ZM565.333 510.667C569.2 514.534 568.8 520.534 564.4 524C561.066 526.667 559.466 526.8 545.6 526.4C531.466 526 530.266 525.734 527.866 522.8C524.533 518.667 524.666 514.934 528.266 511.067C530.933 508.134 532.133 508 546.933 508C560.933 508 562.933 508.267 565.333 510.667Z" fill="#7F7F7F"/>
</g>
<defs>
<clipPath id="clip0_489_441">
<rect width="682.667" height="682.667" fill="white"/>
</clipPath>
</defs>
</svg>
