<svg width="200" height="200" viewBox="0 0 200 200" fill="none" xmlns="http://www.w3.org/2000/svg">
<path opacity="0.889" fill-rule="evenodd" clip-rule="evenodd" d="M58.4998 61.5C64.8419 61.3338 71.1752 61.5005 77.4998 62C82.3209 65.601 82.6543 69.601 78.4998 74C71.4998 74.6667 64.4998 74.6667 57.4998 74C54.5982 69.5015 54.9315 65.3348 58.4998 61.5Z" fill="black"/>
<path opacity="0.881" fill-rule="evenodd" clip-rule="evenodd" d="M58.4995 80.5C63.6273 80.1115 68.6273 80.6115 73.4995 82C74.6163 85.0731 74.783 88.2397 73.9995 91.5C73.2491 92.1258 72.4157 92.6258 71.4995 93C67.1662 93.6667 62.8328 93.6667 58.4995 93C54.5574 88.7905 54.5574 84.6239 58.4995 80.5Z" fill="black"/>
<path opacity="0.888" fill-rule="evenodd" clip-rule="evenodd" d="M164.5 80.5001C167.649 80.2115 170.649 80.7115 173.5 82.0001C178.367 86.5324 182.867 91.3657 187 96.5001C187.755 99.3034 187.422 101.97 186 104.5C181.833 108.667 177.667 112.833 173.5 117C169.206 119.386 165.373 118.886 162 115.5C161.022 112.331 161.522 109.497 163.5 107C151.5 106.667 139.5 106.333 127.5 106C124.606 103.091 123.773 99.5914 125 95.5001C125.903 94.2987 127.069 93.4653 128.5 93.0001C140.167 92.6668 151.833 92.3334 163.5 92.0001C160.681 87.8988 161.014 84.0655 164.5 80.5001Z" fill="black"/>
<path opacity="0.877" fill-rule="evenodd" clip-rule="evenodd" d="M57.5004 99.5001C62.5115 99.3342 67.5115 99.5008 72.5004 100C75.4309 104.3 75.0975 108.3 71.5004 112C67.1671 112.667 62.8337 112.667 58.5004 112C54.8379 108.173 54.5046 104.006 57.5004 99.5001Z" fill="black"/>
<path opacity="0.841" fill-rule="evenodd" clip-rule="evenodd" d="M59.4995 117.5C63.5133 117.334 67.5133 117.501 71.4995 118C74.3934 120.909 75.2267 124.409 73.9995 128.5C73.097 129.701 71.9303 130.535 70.4995 131C66.0437 131.867 61.7104 131.534 57.4995 130C55.4958 127.159 54.9958 123.993 55.9995 120.5C57.1446 119.364 58.3112 118.364 59.4995 117.5Z" fill="black"/>
<path opacity="0.918" fill-rule="evenodd" clip-rule="evenodd" d="M58.4998 136.5C69.1717 136.333 79.8383 136.5 90.4998 137C94.1149 140.659 94.4483 144.659 91.4998 149C80.1665 149.667 68.8331 149.667 57.4998 149C54.5982 144.501 54.9315 140.335 58.4998 136.5Z" fill="black"/>
<path opacity="0.938" fill-rule="evenodd" clip-rule="evenodd" d="M58.4995 155.5C77.5024 155.333 96.5024 155.5 115.5 156C119.489 159.955 119.489 163.955 115.5 168C96.4995 168.667 77.4995 168.667 58.4995 168C54.5574 163.791 54.5574 159.624 58.4995 155.5Z" fill="black"/>
<path opacity="0.948" fill-rule="evenodd" clip-rule="evenodd" d="M13.5 11.5C53.5014 11.3333 93.5014 11.5 133.5 12C134.333 12.8333 135.167 13.6667 136 14.5C136.667 37.8333 136.667 61.1667 136 84.5C132 88.5 128 88.5 124 84.5C123.5 75.1726 123.334 65.8393 123.5 56.5C98.5 56.5 73.5 56.5 48.5 56.5C48.5 95.8333 48.5 135.167 48.5 174.5C73.5 174.5 98.5 174.5 123.5 174.5C123.167 154.156 123.5 133.822 124.5 113.5C128.642 110.593 132.476 110.926 136 114.5C136.667 137.833 136.667 161.167 136 184.5C135.167 185.333 134.333 186.167 133.5 187C93.5 187.667 53.5 187.667 13.5 187C12.6667 186.167 11.8333 185.333 11 184.5C10.3333 127.833 10.3333 71.1667 11 14.5C12.045 13.6266 12.8783 12.6266 13.5 11.5ZM23.5 24.5C27.5 24.5 31.5 24.5 35.5 24.5C35.5 30.5 35.5 36.5 35.5 42.5C31.5 42.5 27.5 42.5 23.5 42.5C23.5 36.5 23.5 30.5 23.5 24.5ZM48.5 24.5C73.5 24.5 98.5 24.5 123.5 24.5C123.5 30.5 123.5 36.5 123.5 42.5C98.5 42.5 73.5 42.5 48.5 42.5C48.5 36.5 48.5 30.5 48.5 24.5ZM23.5 56.5C27.5 56.5 31.5 56.5 35.5 56.5C35.5 95.8333 35.5 135.167 35.5 174.5C31.5 174.5 27.5 174.5 23.5 174.5C23.5 135.167 23.5 95.8333 23.5 56.5Z" fill="black"/>
<path d="M77.6271 31.2045C77.5779 31.0038 77.5002 30.8277 77.3942 30.6761C77.2881 30.5208 77.1555 30.3902 76.9964 30.2841C76.8411 30.1742 76.6593 30.0928 76.451 30.0398C76.2464 29.983 76.0211 29.9545 75.7749 29.9545C75.2446 29.9545 74.7919 30.0814 74.4169 30.3352C74.0457 30.589 73.7616 30.9545 73.5646 31.4318C73.3714 31.9091 73.2749 32.4848 73.2749 33.1591C73.2749 33.8409 73.3677 34.4242 73.5533 34.9091C73.7389 35.3939 74.0154 35.7652 74.3828 36.0227C74.7502 36.2803 75.2067 36.4091 75.7521 36.4091C76.2332 36.4091 76.6328 36.339 76.951 36.1989C77.273 36.0587 77.5135 35.8598 77.6726 35.6023C77.8317 35.3447 77.9112 35.0417 77.9112 34.6932L78.4567 34.75H75.7976V32.5H80.9567V34.1136C80.9567 35.1742 80.7313 36.0814 80.2805 36.8352C79.8336 37.5852 79.2161 38.161 78.4283 38.5625C77.6442 38.9602 76.7446 39.1591 75.7294 39.1591C74.5968 39.1591 73.6025 38.9186 72.7464 38.4375C71.8904 37.9564 71.2218 37.2708 70.7408 36.3807C70.2635 35.4905 70.0249 34.4318 70.0249 33.2045C70.0249 32.2424 70.1707 31.3902 70.4624 30.6477C70.7578 29.9053 71.1669 29.2784 71.6896 28.767C72.2124 28.2519 72.8165 27.8636 73.5021 27.6023C74.1877 27.3371 74.9226 27.2045 75.7067 27.2045C76.3961 27.2045 77.0362 27.303 77.6271 27.5C78.2218 27.6932 78.7464 27.9697 79.201 28.3295C79.6593 28.6856 80.0286 29.108 80.3089 29.5966C80.5893 30.0852 80.7597 30.6212 80.8203 31.2045H77.6271ZM90.4297 39V27.3636H93.5888V31.9091H97.7706V27.3636H100.93V39H97.7706V34.4545H93.5888V39H90.4297Z" fill="black"/>
</svg>
