<svg width="683" height="683" viewBox="0 0 683 683" fill="none" xmlns="http://www.w3.org/2000/svg">
<path d="M270.799 65.4667C262.399 68.8 262.533 68.8 302.933 92.1334C324.399 104.533 342.266 114.667 342.666 114.533C344.799 114.4 417.733 71.0667 417.733 70C417.733 69.2 415.733 67.6 413.199 66.4C409.066 64.2667 402.933 64 341.333 64.1334C300.799 64.1334 272.666 64.6667 270.799 65.4667Z" fill="#7F7F7F"/>
<path d="M256 120C256 136.133 256.267 149.333 256.667 149.333C256.933 149.333 265.867 144.533 276.4 138.667C287.2 132.667 297.2 128 299.2 128C304.133 128 309.333 133.467 309.333 138.667C309.333 144.4 306 147.2 286.4 158C277.067 163.067 269.333 167.733 269.333 168.133C269.333 170.267 279.467 170.667 341.333 170.667C403.2 170.667 413.333 170.267 413.333 168.133C413.333 167.733 405.6 163.067 396.267 158C376.667 147.2 373.333 144.4 373.333 138.667C373.333 133.467 378.533 128 383.467 128C385.467 128 395.467 132.667 406.267 138.667C416.8 144.533 425.733 149.333 426 149.333C426.4 149.333 426.667 136.4 426.667 120.667C426.667 104.933 426.4 92.0001 426 92.0001C425.733 92.0001 407.333 102.533 385.067 115.333C354.4 133.2 343.867 138.533 341.333 138.133C339.467 137.733 321.2 127.867 300.667 116C280.133 104.133 261.733 93.6001 259.733 92.5334L256 90.5334V120Z" fill="#7F7F7F"/>
<path d="M112.267 161.467C110.533 162.133 108.4 164.4 107.6 166.667C106.267 170.133 105.467 170.667 101.067 170.667H96V181.333V192H128H160V181.333V170.667H154.933C150.533 170.667 149.733 170.133 148.4 166.667C147.6 164.4 145.333 162.133 143.333 161.333C138.933 159.733 116.4 159.733 112.267 161.467Z" fill="#7F7F7F"/>
<path d="M53.333 277.333V373.333H128H202.666V277.333V181.333H192H181.333V189.867C181.333 199.467 178.4 205.2 170.8 210.267C166.4 213.333 165.6 213.333 128 213.333C90.3997 213.333 89.5997 213.333 85.1997 210.267C77.5997 205.2 74.6663 199.467 74.6663 189.867V181.333H63.9997H53.333V277.333ZM92.6663 238C99.333 244.533 94.6663 256 85.333 256C79.8663 256 74.6663 250.8 74.6663 245.333C74.6663 239.867 79.8663 234.667 85.333 234.667C87.8663 234.667 90.6663 235.867 92.6663 238ZM178 238C180.133 240 181.333 242.8 181.333 245.333C181.333 247.867 180.133 250.667 178 252.667L174.8 256H144H113.2L110 252.667C107.866 250.667 106.666 247.867 106.666 245.333C106.666 242.8 107.866 240 110 238L113.2 234.667H144H174.8L178 238ZM92.6663 280.667C99.333 287.2 94.6663 298.667 85.333 298.667C79.8663 298.667 74.6663 293.467 74.6663 288C74.6663 282.533 79.8663 277.333 85.333 277.333C87.8663 277.333 90.6663 278.533 92.6663 280.667ZM178 280.667C180.133 282.667 181.333 285.467 181.333 288C181.333 290.533 180.133 293.333 178 295.333L174.8 298.667H144H113.2L110 295.333C107.866 293.333 106.666 290.533 106.666 288C106.666 285.467 107.866 282.667 110 280.667L113.2 277.333H144H174.8L178 280.667ZM92.6663 323.333C99.333 329.867 94.6663 341.333 85.333 341.333C79.8663 341.333 74.6663 336.133 74.6663 330.667C74.6663 325.2 79.8663 320 85.333 320C87.8663 320 90.6663 321.2 92.6663 323.333ZM178 323.333C180.133 325.333 181.333 328.133 181.333 330.667C181.333 333.2 180.133 336 178 338L174.8 341.333H144H113.2L110 338C107.866 336 106.666 333.2 106.666 330.667C106.666 328.133 107.866 325.333 110 323.333L113.2 320H144H174.8L178 323.333Z" fill="#7F7F7F"/>
<path d="M475.2 182.933C470.8 185.067 469.333 189.733 469.333 202V213.333H480H490.666V202C490.666 189.467 489.2 184.933 484.4 182.8C480.533 181.067 478.933 181.067 475.2 182.933Z" fill="#7F7F7F"/>
<path d="M500.533 183.467C500.933 184.667 501.333 225.333 501.333 274V362.533L510.533 357.2C515.466 354.4 520.933 352 522.533 352C524.133 352 529.599 354.133 534.666 356.667L543.999 361.333L553.333 356.667C558.399 354.133 563.866 352 565.333 352C566.799 352 572.266 354.133 577.333 356.667L586.666 361.333L595.999 356.667C601.066 354.133 606.666 352 608.266 352C609.999 352 615.466 354.4 620.399 357.2L629.333 362.533V276.667C629.333 216.533 628.933 189.867 627.866 187.6C627.066 185.733 624.933 183.6 623.066 182.8C620.933 181.733 600.933 181.333 559.733 181.333C505.599 181.333 499.733 181.6 500.533 183.467ZM604.666 216.667C606.799 218.667 607.999 221.467 607.999 224C607.999 226.533 606.799 229.333 604.666 231.333L601.466 234.667H565.333H529.199L525.999 231.333C523.866 229.333 522.666 226.533 522.666 224C522.666 221.467 523.866 218.667 525.999 216.667L529.199 213.333H565.333H601.466L604.666 216.667ZM604.666 259.333C606.799 261.333 607.999 264.133 607.999 266.667C607.999 269.2 606.799 272 604.666 274L601.466 277.333H565.333H529.199L525.999 274C523.866 272 522.666 269.2 522.666 266.667C522.666 264.133 523.866 261.333 525.999 259.333L529.199 256H565.333H601.466L604.666 259.333ZM604.666 302C606.799 304 607.999 306.8 607.999 309.333C607.999 311.867 606.799 314.667 604.666 316.667L601.466 320H565.333H529.199L525.999 316.667C523.866 314.667 522.666 311.867 522.666 309.333C522.666 306.8 523.866 304 525.999 302L529.199 298.667H565.333H601.466L604.666 302Z" fill="#7F7F7F"/>
<path d="M330.666 202.667V213.333H341.333H351.999V202.667V192H341.333H330.666V202.667Z" fill="#7F7F7F"/>
<path d="M330.666 245.333V256H341.333H351.999V245.333V234.667H341.333H330.666V245.333Z" fill="#7F7F7F"/>
<path d="M330.666 288V298.667H341.333H351.999V288V277.333H341.333H330.666V288Z" fill="#7F7F7F"/>
<path d="M330.666 330.667V341.333H341.333H351.999V330.667V320H341.333H330.666V330.667Z" fill="#7F7F7F"/>
<path d="M328.666 353.6C304.4 358.133 283.333 379.867 278.8 404.533C276.933 414.8 276.933 440.533 278.8 449.6C280.933 459.867 287.066 472 294.133 479.867C299.466 485.867 299.866 486.8 297.733 487.467C258 501.6 225.6 536.4 215.333 576C210.933 593.067 216.666 607.2 231.333 615.067L236.666 618H341.333H446L451.333 615.067C466 607.2 471.733 593.067 467.333 576C464.8 565.867 455.466 545.467 449.2 536.533C434.933 515.733 409.066 496 384.933 487.467C382.8 486.8 383.2 485.867 388.533 479.867C400.666 466.4 405.333 451.6 405.333 426.667C405.333 400.133 400.266 385.333 386.133 371.2C370.666 355.867 350.133 349.467 328.666 353.6ZM360.666 378C370.666 383.067 379.066 393.2 382.133 403.467C383.733 409.2 384.133 415.2 383.733 429.733C383.2 451.867 381.333 457.333 371.333 467.333C362.266 476.4 355.066 479.333 341.333 479.333C327.6 479.333 320 476.133 310.4 466.4C300.8 456.533 298.666 449.333 298.666 426.667C298.666 403.2 300.933 396.133 311.466 385.733C320.933 376.533 329.466 373.2 342.8 373.733C350.933 374 354.4 374.8 360.666 378ZM326.933 512.133C329.6 516.8 331.6 521.467 331.333 522.4C330.933 523.333 328.933 538.667 326.666 556.4C324.533 574.133 322.4 590.667 322 592.933L321.2 597.333H281.2H241.2L238 594C234.133 590.267 233.866 587.067 236.8 577.2C245.066 549.6 267.066 524.4 293.866 511.867C302.933 507.6 318.4 502.667 320.666 503.2C321.333 503.467 324.266 507.467 326.933 512.133ZM378.4 507.733C410 518.933 434.4 543.733 445.466 575.867C448.933 585.6 448.666 590.133 444.666 594L441.466 597.333H401.466H361.6L360.8 593.6C360.4 591.6 358.266 574.8 356 556.4L351.866 522.667L356.933 513.333C362.933 502.4 363.066 502.4 378.4 507.733Z" fill="#7F7F7F"/>
<path d="M106.666 405.333V416H117.333H127.999V405.333V394.667H117.333H106.666V405.333Z" fill="#7F7F7F"/>
<path d="M554.666 405.333V416H565.333H575.999V405.333V394.667H565.333H554.666V405.333Z" fill="#7F7F7F"/>
<path d="M106.666 448V458.667H117.333H127.999V448V437.333H117.333H106.666V448Z" fill="#7F7F7F"/>
<path d="M554.666 448V458.667H565.333H575.999V448V437.333H565.333H554.666V448Z" fill="#7F7F7F"/>
<path d="M106.666 490.667V501.333H117.333H127.999V490.667V480H117.333H106.666V490.667Z" fill="#7F7F7F"/>
<path d="M554.666 490.667V501.333H565.333H575.999V490.667V480H565.333H554.666V490.667Z" fill="#7F7F7F"/>
<path d="M106.666 528.667C106.666 531.867 107.333 536 108.133 537.733C109.999 542 114.666 544 121.999 544H127.999V533.333V522.667H117.333H106.666V528.667Z" fill="#7F7F7F"/>
<path d="M149.333 533.333V544H160H170.666V533.333V522.667H160H149.333V533.333Z" fill="#7F7F7F"/>
<path d="M192 533.333V544H202.667H213.333V533.333V522.667H202.667H192V533.333Z" fill="#7F7F7F"/>
<path d="M469.333 533.333V544H480H490.666V533.333V522.667H480H469.333V533.333Z" fill="#7F7F7F"/>
<path d="M512 533.333V544H522.667H533.333V533.333V522.667H522.667H512V533.333Z" fill="#7F7F7F"/>
<path d="M554.666 533.333V544H560.666C571.866 544 575.999 539.867 575.999 528.667V522.667H565.333H554.666V533.333Z" fill="#7F7F7F"/>
</svg>
